<svg xmlns="http://www.w3.org/2000/svg" width="300" height="300" viewBox="0 0 480 480" version="1.1"><path d="M 211.500 1.543 C 184.914 4.708, 159.616 12.224, 134.500 24.417 C 60.567 60.312, 9.905 131.988, 1.058 213.211 C -0.302 225.694, -0.302 254.306, 1.058 266.789 C 13.138 377.686, 102.314 466.862, 213.211 478.942 C 225.694 480.302, 254.306 480.302, 266.789 478.942 C 354.311 469.409, 431.001 410.908, 463.352 329 C 471.076 309.444, 477.266 284.983, 478.658 268.518 C 479.011 264.347, 479.682 260.697, 480.150 260.408 C 480.617 260.118, 481 250.432, 481 238.882 C 481 227.332, 480.615 218.120, 480.144 218.411 C 479.673 218.702, 479.002 215.555, 478.653 211.418 C 477.266 195.017, 471.064 170.525, 463.352 151 C 434.046 76.803, 367.974 21.096, 290.110 4.937 C 266.865 0.112, 235.054 -1.261, 211.500 1.543 M 231 10.639 C 193.368 13.399, 168.913 19.637, 139.319 34.026 C 127.873 39.592, 101.157 56.042, 99 58.853 C 98.725 59.211, 95.239 62.141, 91.253 65.363 C 81.360 73.361, 65.057 90.563, 56.014 102.546 C -1.657 178.966, -6.083 284.050, 44.982 364.500 C 68.511 401.568, 98.616 428.718, 138.500 448.836 C 202.171 480.952, 280.174 480.462, 344.830 447.540 C 413.425 412.611, 460.095 346.204, 469.574 270.038 C 472.187 249.038, 471.108 218.012, 467.034 197 C 455.332 136.655, 417.981 81.473, 366 47.738 C 335.898 28.202, 299.685 15.375, 265.500 12.142 C 251.873 10.853, 236.947 10.202, 231 10.639 M 239.667 30.667 C 239.300 31.033, 238.987 34.296, 238.970 37.917 C 238.954 41.538, 238.313 52.146, 237.545 61.492 C 236.778 70.837, 236.229 78.557, 236.325 78.646 C 236.421 78.736, 238.075 78.965, 240 79.155 C 243.362 79.486, 243.510 79.362, 243.744 76 C 243.878 74.075, 244.254 69.237, 244.579 65.250 L 245.171 58 248.363 58 C 250.119 58, 252.555 58.701, 253.777 59.557 C 255.807 60.978, 256 61.933, 256 70.538 C 256 81.084, 255.384 80.316, 264.668 81.332 L 268.836 81.788 271.049 75.868 C 272.703 71.445, 273.672 70.063, 274.882 70.400 C 275.772 70.648, 277.962 71.145, 279.750 71.505 L 283 72.159 283 78.463 C 283 84.155, 283.218 84.825, 285.250 85.370 C 291.322 86.997, 291 88.353, 291 61.119 L 291 36.237 286.352 35.067 C 283.795 34.423, 281.341 34.259, 280.899 34.701 C 280.456 35.144, 276.664 43.605, 272.472 53.503 C 268.280 63.401, 264.467 71.893, 264.001 72.374 C 263.533 72.855, 263.230 70.005, 263.326 66.037 C 263.480 59.650, 263.243 58.617, 261.250 57.002 C 258.636 54.884, 258.407 54, 260.474 54 C 262.836 54, 265 48.551, 265 42.605 C 265 35.561, 262.386 32.187, 255.971 30.950 C 250.590 29.912, 240.595 29.738, 239.667 30.667 M 209.374 31.985 C 208.204 32.458, 206.179 34.342, 204.874 36.172 C 202.852 39.006, 202.515 40.612, 202.600 47 C 202.811 62.795, 206.984 77.688, 212.080 80.833 C 213.268 81.567, 216.184 82.167, 218.560 82.167 C 230.428 82.167, 233.825 74.590, 230.963 54.500 C 228.480 37.071, 224.609 30.948, 216.144 31.063 C 213.590 31.098, 210.543 31.513, 209.374 31.985 M 246.415 38.362 C 246.127 39.111, 246.029 42.374, 246.196 45.612 L 246.500 51.500 250.051 51.799 C 254.346 52.160, 256.824 49.858, 257.655 44.737 C 258.099 42.001, 257.759 40.759, 256.113 39.113 C 253.678 36.678, 247.252 36.180, 246.415 38.362 M 177 40.470 C 170.803 42.338, 169.557 43.058, 169.829 44.615 C 170.010 45.652, 172.823 55.813, 176.079 67.197 C 179.336 78.580, 182 88.197, 182 88.569 C 182 90.323, 178.576 86.067, 175.359 80.314 C 170.975 72.475, 169.550 71, 166.361 71 C 164.211 71, 163.972 70.688, 164.636 68.750 C 167.493 60.416, 158.915 48.340, 151.724 50.572 C 147.096 52.008, 135.888 58.130, 135.358 59.510 C 135.054 60.301, 135.687 62.423, 136.765 64.225 C 137.842 66.026, 141.201 72.225, 144.229 78 C 147.256 83.775, 151.437 91.738, 153.520 95.697 L 157.306 102.893 160.153 101.421 C 161.719 100.611, 163 99.459, 163 98.860 C 163 98.261, 160.944 93.968, 158.431 89.320 C 153.342 79.907, 153.484 78.563, 159.687 77.399 C 163.901 76.608, 164.909 77.469, 169.983 86.193 C 172.627 90.739, 174.189 92.452, 175.576 92.329 C 177.317 92.173, 188.984 88.350, 189.602 87.731 C 189.743 87.590, 188.590 83.205, 187.038 77.987 C 185.486 72.769, 184.388 68.214, 184.597 67.863 C 184.807 67.513, 186.545 66.933, 188.460 66.574 C 192.797 65.760, 197.571 61.844, 198.438 58.390 C 199.604 53.743, 197.174 45.327, 193.560 41.495 C 189.646 37.345, 187.758 37.228, 177 40.470 M 211.035 39.934 C 209.591 42.633, 209.742 48.420, 211.551 59.659 C 213.496 71.750, 215.054 75, 218.903 75 C 223.106 75, 224.277 72.881, 224.118 65.563 C 223.920 56.431, 221.202 41.881, 219.302 39.781 C 217.126 37.377, 212.357 37.465, 211.035 39.934 M 296.986 40.250 C 296.979 40.938, 296.709 42.483, 296.387 43.685 C 295.882 45.566, 296.370 46.023, 299.900 46.973 C 302.155 47.580, 304 48.660, 304 49.373 C 304 50.086, 303.156 53.332, 302.123 56.585 C 295.734 76.725, 293 85.895, 293 87.191 C 293 88.001, 294.487 89.121, 296.304 89.679 C 299.575 90.682, 299.622 90.651, 300.842 86.596 C 302.899 79.763, 309.063 59.759, 310.424 55.500 C 311.763 51.311, 312.679 50.946, 318.125 52.436 C 320.445 53.071, 320.881 52.779, 321.875 49.928 C 322.494 48.153, 323 46.569, 323 46.406 C 323 45.894, 300.297 39, 298.610 39 C 297.725 39, 296.994 39.563, 296.986 40.250 M 279.848 53.312 L 276.197 63.124 278.664 64.062 C 280.020 64.578, 281.523 65, 282.004 65 C 283.273 65, 284.179 57.503, 283.815 50 L 283.500 43.500 279.848 53.312 M 181.500 45.713 C 180.400 45.978, 179.169 46.504, 178.764 46.883 C 177.965 47.631, 180.755 58.758, 182.223 60.676 C 183.376 62.184, 188.829 60.057, 190.231 57.551 C 191.559 55.179, 190.288 49.288, 187.944 46.944 C 185.987 44.987, 185.168 44.831, 181.500 45.713 M 319.077 71.899 C 312.985 83.393, 308 93.239, 308 93.778 C 308 94.765, 313.807 97.601, 314.362 96.885 C 314.526 96.673, 316.699 92.675, 319.190 88 C 331.830 64.282, 337.182 53.854, 336.858 53.577 C 335.885 52.746, 332.013 51, 331.143 51 C 330.599 51, 325.170 60.405, 319.077 71.899 M 147.250 59.491 C 145.463 60.268, 144 61.163, 144 61.480 C 144 62.524, 150.017 74, 150.564 74 C 152.160 74, 157.083 70.713, 157.970 69.055 C 159.766 65.701, 155.633 57.952, 152.095 58.039 C 151.218 58.061, 149.037 58.714, 147.250 59.491 M 341.404 60.974 C 336.937 62.780, 325.738 78.951, 321.449 89.790 C 318.254 97.862, 321.975 105.714, 330.157 108.165 C 337.260 110.293, 342.347 106.588, 350.715 93.192 C 356.987 83.150, 360.335 74.598, 359.576 70.554 C 358.971 67.326, 355.354 63.197, 351.316 61.122 C 348.785 59.822, 344.415 59.757, 341.404 60.974 M 121.309 66.767 C 120.104 66.963, 117.179 68.845, 114.809 70.948 C 110.922 74.398, 110.509 75.200, 110.595 79.136 C 110.799 88.473, 126.613 111.397, 134.688 114.062 C 138.891 115.449, 143.743 113.977, 147.965 110.033 C 150.541 107.626, 151 106.462, 151 102.328 C 151 98.347, 150.153 96.001, 146.359 89.479 C 136.427 72.403, 128.857 65.539, 121.309 66.767 M 342.660 69.612 C 341.224 71.049, 337.337 76.751, 334.024 82.283 C 326.720 94.480, 325.996 99.106, 331.111 100.889 C 333.967 101.885, 334.467 101.712, 337.204 98.782 C 341.977 93.673, 352 75.979, 352 72.664 C 352 69.616, 349.704 67.087, 346.886 67.032 C 345.999 67.014, 344.097 68.176, 342.660 69.612 M 119.655 75.829 C 117.372 78.351, 117.593 80.746, 120.595 86 C 124.938 93.601, 133.382 104.848, 135.673 106.084 C 138.255 107.476, 142.854 106.544, 143.651 104.468 C 144.643 101.881, 143.174 98.486, 136.908 88.880 C 127.224 74.036, 123.694 71.366, 119.655 75.829 M 361.442 91.706 C 354.329 99.293, 346.825 107.300, 344.766 109.500 C 342.706 111.700, 341.017 113.759, 341.011 114.076 C 341.005 114.392, 342.053 115.640, 343.339 116.849 L 345.678 119.046 354.589 109.399 C 359.490 104.093, 364.789 98.345, 366.365 96.626 C 368.834 93.931, 369.135 93.811, 368.546 95.754 C 368.170 96.993, 364.795 104.418, 361.046 112.254 L 354.229 126.500 356.801 129.250 C 358.216 130.762, 359.674 132, 360.041 132 C 360.407 132, 366.960 125.156, 374.603 116.791 C 382.247 108.426, 389.730 100.397, 391.233 98.949 L 393.966 96.316 391.668 94.158 C 390.405 92.971, 389.019 92, 388.588 92 C 388.158 92, 385.712 94.354, 383.153 97.230 C 380.594 100.107, 375.461 105.619, 371.747 109.480 C 365.088 116.402, 365.016 116.444, 366.612 112.500 C 367.502 110.300, 370.890 102.895, 374.141 96.045 L 380.052 83.590 377.213 80.752 L 374.375 77.913 361.442 91.706 M 89.880 92.435 C 79.996 99.152, 82.921 107.868, 100.446 123.915 C 112.338 134.804, 118.485 136.369, 124.867 130.130 C 130.380 124.740, 130.197 118.927, 124.296 112.032 L 120.621 107.739 118.260 110.485 C 116.155 112.931, 116.059 113.408, 117.380 114.867 C 124.128 122.323, 121.328 128.835, 113.200 124.590 C 111.715 123.814, 106.338 118.925, 101.250 113.724 C 91.153 103.404, 89.692 100.009, 94.421 97.854 C 96.432 96.938, 97.374 97.130, 99.985 98.989 L 103.129 101.228 105.563 98.941 C 107.893 96.752, 107.922 96.571, 106.251 94.725 C 101.611 89.597, 95.346 88.721, 89.880 92.435 M 229 106.602 C 219.546 107.744, 211.694 109.308, 203.546 111.671 C 184.880 117.085, 183.742 116.921, 240 116.930 C 269.717 116.935, 290.866 116.571, 290 116.068 C 279.850 110.176, 244.640 104.711, 229 106.602 M 391.511 131.105 C 381.067 138.240, 372.136 144.464, 371.665 144.935 C 371.189 145.411, 373.520 149.824, 376.904 154.857 C 380.257 159.844, 383 164.566, 383 165.351 C 383 166.136, 383.835 167.809, 384.855 169.069 L 386.710 171.360 395.105 166.512 C 414.285 155.435, 427.552 147.623, 428.343 146.941 C 429.306 146.111, 426.267 141, 424.811 141 C 424.284 141, 416.573 145.210, 407.676 150.356 C 398.779 155.503, 390.375 160.301, 389 161.020 C 386.721 162.212, 386.620 162.182, 387.858 160.681 C 389.035 159.254, 388.735 158.308, 385.608 153.597 C 383.624 150.607, 382.017 147.787, 382.038 147.331 C 382.059 146.874, 389.484 141.604, 398.538 135.620 C 407.592 129.636, 415 124.333, 415 123.835 C 415 122.587, 411.916 117.985, 411.135 118.066 C 410.786 118.103, 401.955 123.970, 391.511 131.105 M 175.035 123.630 C 166.468 128.290, 146 144.137, 146 146.111 C 146 146.378, 152.637 146.440, 160.750 146.248 C 177.710 145.846, 174.149 146.983, 209 130.846 C 214.775 128.173, 221.300 125.116, 223.500 124.054 L 227.500 122.124 205.450 122.062 C 193.075 122.027, 182.983 121.586, 182.450 121.057 C 181.854 120.466, 179.092 121.424, 175.035 123.630 M 298.392 121.008 C 297.858 121.542, 287.252 122.081, 274.312 122.231 L 251.185 122.500 275.145 133.500 C 288.323 139.550, 300.615 144.950, 302.460 145.500 C 304.305 146.050, 312.436 146.364, 320.530 146.197 L 335.245 145.895 331.372 142.384 C 319.531 131.648, 300.249 119.151, 298.392 121.008 M 224.418 128.833 C 216.673 132.500, 205.423 137.692, 199.418 140.372 C 193.413 143.051, 188.185 145.526, 187.800 145.872 C 187.416 146.217, 210.737 146.500, 239.626 146.500 L 292.152 146.500 285.514 143.379 C 268.667 135.457, 238.998 121.960, 238.701 122.083 C 238.590 122.128, 232.163 125.166, 224.418 128.833 M 60.785 132.905 C 58.978 134.503, 56.619 137.540, 55.542 139.655 C 54.465 141.770, 52.762 144.717, 51.757 146.204 C 49.647 149.325, 48.941 148.632, 61.500 155.761 C 81.982 167.386, 91.537 173.161, 91.861 174.109 C 92.060 174.690, 90.813 174.438, 89.091 173.547 L 85.960 171.928 84.125 176.214 C 83.115 178.571, 81.969 181.512, 81.577 182.750 C 80.694 185.539, 79.617 185.551, 72.542 182.843 C 68.187 181.177, 67.055 180.325, 67.559 179.093 C 70.015 173.096, 71.123 168.725, 70.371 167.992 C 69.892 167.524, 68.320 166.850, 66.878 166.494 C 64.686 165.954, 64.157 166.239, 63.657 168.232 C 63.327 169.544, 62.367 172.270, 61.523 174.291 L 59.987 177.966 54.744 175.899 C 51.860 174.763, 49.363 173.696, 49.196 173.529 C 49.029 173.362, 50.041 170.397, 51.446 166.940 C 52.851 163.484, 54 160.552, 54 160.425 C 54 160.103, 47.868 158, 46.928 158 C 46.503 158, 45.613 159.688, 44.950 161.750 C 44.288 163.813, 42.647 168.147, 41.305 171.382 C 39.952 174.640, 39.245 177.645, 39.719 178.119 C 40.189 178.589, 43.708 180.076, 47.537 181.422 C 51.367 182.769, 61.004 186.374, 68.953 189.435 C 76.902 192.496, 83.877 194.997, 84.453 194.994 C 85.029 194.991, 87.261 190.153, 89.413 184.244 C 91.565 178.335, 93.928 172.612, 94.663 171.527 C 95.398 170.443, 96 169.009, 96 168.342 C 96 167.675, 92.086 164.922, 87.303 162.224 C 82.520 159.527, 78.451 156.854, 78.262 156.286 C 77.673 154.520, 83.050 148.999, 85.339 149.018 C 86.528 149.028, 89.975 150.417, 93 152.105 C 102.404 157.352, 102.583 157.371, 104.931 153.392 C 107.405 149.199, 107.430 149, 105.478 149 C 104.641 149, 100.376 147.200, 96 145 C 87.978 140.966, 84.635 140.164, 83.500 142 C 82.395 143.789, 81 143.056, 81 140.687 C 81 137.841, 76.748 133.628, 71.782 131.553 C 66.518 129.354, 64.523 129.599, 60.785 132.905 M 62.589 141.077 C 61.165 142.769, 60.009 144.681, 60.020 145.327 C 60.038 146.424, 70.243 153, 71.928 153 C 72.350 153, 73.484 151.253, 74.447 149.118 C 76.527 144.505, 75.588 141.873, 71.020 139.510 C 66.852 137.355, 65.511 137.604, 62.589 141.077 M 239.500 151 L 140.500 151.515 239.750 151.757 C 305.412 151.918, 339 151.662, 339 151 C 339 150.450, 338.887 150.109, 338.750 150.243 C 338.613 150.376, 293.950 150.717, 239.500 151 M 133.980 159.241 C 129.361 165.488, 124.245 173.564, 121.622 178.750 L 118.966 184 141.981 184 L 164.995 184 181.247 173.841 C 190.186 168.254, 199.921 162.196, 202.880 160.379 C 205.838 158.561, 208.478 156.855, 208.746 156.588 C 209.013 156.320, 192.835 156.085, 172.794 156.064 L 136.356 156.028 133.980 159.241 M 223.570 156.763 C 223.257 157.077, 223 163.333, 223 170.667 L 223 184 238.500 184 L 254 184 254 170.607 C 254 159, 253.777 157.128, 252.324 156.571 C 250.285 155.789, 224.371 155.962, 223.570 156.763 M 269 156.392 C 269 156.626, 274.738 160.290, 281.750 164.534 C 288.762 168.778, 297.875 174.346, 302 176.907 C 314.187 184.474, 312.104 184.080, 338.249 183.776 L 361.998 183.500 357.029 175 C 354.296 170.325, 350.340 164.250, 348.238 161.500 L 344.418 156.500 306.709 156.233 C 285.969 156.087, 269 156.158, 269 156.392 M 418 162.616 C 385.782 173.820, 387.766 172.927, 388.495 175.879 C 388.850 177.321, 389.480 178.848, 389.894 179.273 C 390.308 179.698, 399.561 176.871, 410.457 172.990 C 421.353 169.109, 430.434 166.101, 430.638 166.304 C 430.841 166.508, 425.044 169.980, 417.754 174.019 C 398.944 184.442, 392.998 187.994, 393.015 188.798 C 393.024 189.184, 393.442 190.150, 393.945 190.945 C 394.897 192.450, 402.733 191.596, 427.303 187.309 C 432.145 186.464, 436.317 185.984, 436.575 186.241 C 436.832 186.499, 428.146 189.760, 417.272 193.488 C 406.397 197.215, 397.385 200.358, 397.245 200.470 C 396.711 200.901, 399.232 207, 399.944 207 C 400.356 207, 408.525 204.262, 418.097 200.916 C 427.668 197.570, 437.750 194.088, 440.500 193.179 C 443.250 192.270, 445.658 191.437, 445.852 191.328 C 446.138 191.167, 443.121 181.017, 442.571 180.289 C 442.483 180.173, 435.456 181.135, 426.956 182.426 C 413.152 184.523, 409.709 184.790, 411.083 183.656 C 411.440 183.362, 417.363 180.024, 434 170.738 C 435.925 169.664, 437.626 168.670, 437.780 168.529 C 438.255 168.095, 434.622 156.993, 434.044 157.113 C 433.745 157.175, 426.525 159.652, 418 162.616 M 262 171.049 L 262 184 283.171 184 L 304.343 184 299.921 181.145 C 294.339 177.539, 278.719 167.986, 269.250 162.386 L 262 158.098 262 171.049 M 194.828 170.782 C 184.558 177.227, 175.821 182.838, 175.411 183.250 C 175.002 183.662, 183.742 184, 194.833 184 L 215 184 215 171.500 C 215 164.625, 214.662 159.015, 214.250 159.032 C 213.838 159.050, 205.098 164.338, 194.828 170.782 M 34.784 191.019 C 34.540 192.679, 34.827 194.407, 35.420 194.857 C 36.014 195.308, 43.250 197.609, 51.500 199.973 C 59.750 202.336, 67.400 204.546, 68.500 204.884 C 69.600 205.223, 61.950 205.725, 51.500 206 L 32.500 206.500 32.202 209.544 L 31.904 212.588 48.952 217.985 C 58.328 220.953, 66 223.633, 66.001 223.941 C 66.001 224.248, 57.788 224.500, 47.751 224.500 L 29.500 224.500 29.201 228.067 L 28.901 231.633 53.701 231.202 C 67.340 230.964, 78.561 230.709, 78.636 230.635 C 78.710 230.561, 79.076 228.654, 79.449 226.397 C 80.239 221.607, 81.403 222.300, 62.500 216.306 L 50.500 212.500 66.250 212.225 C 78.667 212.007, 82 211.664, 82 210.600 C 82 209.857, 82.278 207.858, 82.618 206.158 C 83.140 203.549, 82.866 202.910, 80.868 202.074 C 77.058 200.479, 37.586 188, 36.352 188 C 35.733 188, 35.028 189.359, 34.784 191.019 M 142.319 189.749 C 155.419 189.907, 176.569 189.907, 189.319 189.749 C 202.068 189.591, 191.350 189.461, 165.500 189.462 C 139.650 189.462, 129.218 189.591, 142.319 189.749 M 226.191 189.747 C 233.171 189.918, 244.871 189.919, 252.191 189.748 C 259.511 189.577, 253.800 189.436, 239.500 189.436 C 225.200 189.435, 219.211 189.575, 226.191 189.747 M 315 189.745 C 363.164 190.014, 364 190.053, 364 192.009 C 364 193.967, 363.251 194.001, 318.750 194.032 C 278.103 194.060, 273.703 194.218, 275.500 195.579 C 276.600 196.413, 286.171 202.024, 296.768 208.047 L 316.036 219 344.564 219 L 373.091 219 372.412 215.250 C 372.038 213.188, 370.105 206.550, 368.116 200.500 L 364.500 189.500 315.250 189.486 L 266 189.471 315 189.745 M 113.547 197.250 C 112.804 199.037, 111.059 204.662, 109.668 209.750 L 107.140 219 134.965 219 L 162.791 219 179.146 209.658 C 188.140 204.519, 197.750 198.903, 200.500 197.177 L 205.500 194.038 160.199 194.019 L 114.898 194 113.547 197.250 M 223.433 195.314 C 223.156 196.037, 223.057 201.550, 223.214 207.564 L 223.500 218.500 238.500 218.500 L 253.500 218.500 253.707 207.032 C 253.853 198.969, 253.556 195.337, 252.707 194.798 C 252.043 194.376, 245.298 194.024, 237.719 194.015 C 227.245 194.004, 223.816 194.315, 223.433 195.314 M 210.500 196.983 C 208.850 197.983, 199.648 203.346, 190.052 208.900 L 172.603 219 193.302 219 L 214 219 214 207 C 214 200.400, 213.887 195.037, 213.750 195.083 C 213.613 195.128, 212.150 195.984, 210.500 196.983 M 263 206.893 L 263 219 284 219 C 295.550 219, 305 218.813, 305 218.585 C 305 218.109, 267.152 196.379, 264.651 195.419 C 263.172 194.852, 263 196.051, 263 206.893 M 435 203.629 C 430.325 204.376, 420.425 206.003, 413 207.244 L 399.500 209.500 399.845 213 C 400.035 214.925, 400.268 216.583, 400.363 216.684 C 400.699 217.044, 448.013 209.320, 448.509 208.825 C 448.787 208.547, 448.730 206.898, 448.382 205.160 C 447.659 201.545, 447.874 201.570, 435 203.629 M 444.130 212.712 C 441.966 213.131, 441.803 213.556, 442.257 217.585 C 442.530 220.013, 442.478 222, 442.141 222 C 440.195 222, 406.955 225.129, 404.238 225.568 C 401.320 226.039, 401 226.415, 401.206 229.124 C 401.333 230.789, 401.820 232.389, 402.288 232.678 C 402.755 232.967, 411.607 232.415, 421.957 231.452 C 432.308 230.489, 441.502 229.979, 442.388 230.319 C 443.508 230.748, 444 232.189, 444 235.036 L 444 239.135 447.750 238.766 L 451.500 238.397 451.153 231.448 C 450.215 212.688, 449.811 211.611, 444.130 212.712 M 0.425 240 C 0.425 251.825, 0.569 256.663, 0.746 250.750 C 0.923 244.838, 0.923 235.162, 0.746 229.250 C 0.569 223.338, 0.425 228.175, 0.425 240 M 107 224.184 C 107 224.633, 167.075 225, 240.500 225 C 313.925 225, 374 224.648, 374 224.219 C 374 223.789, 313.925 223.422, 240.500 223.403 C 167.075 223.384, 107 223.736, 107 224.184 M 105.625 233.125 C 103.856 241.972, 105.867 266.773, 109.530 281.274 C 114.031 299.090, 123.807 318.859, 135.355 333.500 C 144.653 345.288, 170.809 367.737, 172.346 365.249 C 172.607 364.827, 173.551 361.561, 174.445 357.991 C 175.338 354.421, 176.478 350.600, 176.978 349.500 C 177.479 348.400, 182.224 332.650, 187.522 314.500 C 192.821 296.350, 197.764 279.700, 198.507 277.500 C 199.249 275.300, 202.171 265.625, 205 256 C 207.829 246.375, 210.561 237.466, 211.072 236.203 C 211.582 234.940, 212 233.027, 212 231.953 C 212 230.040, 210.909 230, 159.125 230 L 106.250 230 105.625 233.125 M 230.190 230.523 C 230.477 230.811, 232.878 232.586, 235.525 234.468 C 240.796 238.215, 241.001 238.189, 246.962 233.009 L 250.424 230 240.046 230 C 234.337 230, 229.902 230.235, 230.190 230.523 M 267.329 230.750 C 267.574 231.162, 271.474 240.950, 275.994 252.500 C 280.514 264.050, 286.683 279.800, 289.704 287.500 C 292.724 295.200, 297.648 307.800, 300.646 315.500 C 306.556 330.678, 311.738 343.436, 313.006 345.930 C 313.446 346.793, 314.378 349.435, 315.079 351.801 C 317.464 359.849, 318.094 360.071, 324.158 355.007 C 334.234 346.593, 338.275 342.487, 344.977 333.853 C 362.842 310.838, 372.536 286.032, 375.152 256.636 C 375.812 249.221, 375.999 240.560, 375.581 236.750 L 374.841 230 320.861 230 C 291.173 230, 267.083 230.338, 267.329 230.750 M 221.566 243.094 C 220.155 249.113, 219 254.308, 219 254.639 C 219 254.970, 221.137 253.500, 223.750 251.372 C 229.041 247.063, 230.377 245.990, 233.999 243.143 L 236.497 241.179 233.544 238.856 C 231.919 237.578, 229.137 235.547, 227.361 234.341 L 224.132 232.150 221.566 243.094 M 250.500 236.180 C 247.750 238.381, 245.378 240.508, 245.228 240.906 C 245.079 241.304, 247.104 243.146, 249.728 244.999 C 252.353 246.851, 255.978 249.635, 257.785 251.184 C 259.591 252.733, 261.452 254, 261.919 254 C 262.387 254, 261.517 250.063, 259.986 245.250 C 255.338 230.638, 256.288 231.546, 250.500 236.180 M 45.159 241.076 C 33.142 242.635, 27.249 248.093, 28.504 256.500 C 29.268 261.617, 31.207 264.538, 35.213 266.610 C 37.902 268.001, 40.628 268.178, 52.454 267.728 C 66.847 267.182, 71.364 266.178, 76.492 262.384 C 78.960 260.558, 79.412 259.453, 79.782 254.336 C 80.165 249.036, 79.927 248.067, 77.541 245.231 C 76.073 243.486, 73.213 241.598, 71.186 241.035 C 66.946 239.857, 54.401 239.877, 45.159 241.076 M 402.714 242.681 C 402.446 243.132, 401.906 248.675, 401.514 255 C 401.123 261.325, 400.179 269.200, 399.416 272.500 C 398.654 275.800, 398.023 280.232, 398.015 282.349 C 397.986 289.727, 405.435 293.748, 426.082 297.499 C 440.554 300.128, 444.709 297.471, 447.692 283.677 C 449.653 274.608, 449.720 274.715, 441.060 273.128 C 438.002 272.568, 431.225 271.160, 426 270 C 420.775 268.840, 413.800 267.369, 410.500 266.732 C 407.200 266.095, 405.449 265.422, 406.609 265.236 C 408.455 264.940, 408.792 264.016, 409.311 257.830 C 409.637 253.943, 410.038 250.632, 410.202 250.473 C 410.366 250.313, 413.596 250.433, 417.380 250.738 L 424.260 251.295 423.617 258.208 L 422.975 265.122 426.737 264.811 L 430.500 264.500 430.799 258.204 L 431.098 251.907 437.298 252.204 L 443.497 252.500 443.159 259.750 L 442.820 267 446.365 267 C 450.452 267, 450.734 266.187, 451.222 253.013 L 451.500 245.527 433.500 244.344 C 423.600 243.694, 412.733 242.870, 409.351 242.512 C 405.970 242.155, 402.983 242.231, 402.714 242.681 M 232.230 250.556 C 227.737 254.151, 223.825 257.474, 223.536 257.942 C 223.247 258.410, 231.108 258.832, 241.005 258.879 C 250.902 258.927, 258.993 258.636, 258.984 258.233 C 258.970 257.622, 254.444 254.140, 242.119 245.260 C 240.640 244.194, 239.252 244.938, 232.230 250.556 M 46.500 248.657 C 39.566 249.482, 36.223 250.974, 35.582 253.529 C 33.956 260.008, 38.592 261.536, 55.633 260.136 C 68.843 259.050, 72.361 257.702, 72.836 253.542 C 73.366 248.894, 71.110 247.978, 59.559 248.150 C 54.026 248.232, 48.150 248.460, 46.500 248.657 M 212.729 250.604 C 212.328 251.005, 212 252.023, 212 252.867 C 212 253.992, 212.296 254.104, 213.113 253.288 C 213.724 252.676, 214.053 251.657, 213.842 251.025 C 213.631 250.393, 213.130 250.203, 212.729 250.604 M 348.238 252.162 C 346.029 254.371, 346.735 261.786, 349.500 265.411 C 352.014 268.707, 352.862 273, 351 273 C 350.450 273, 350 271.875, 350 270.500 C 350 268.623, 349.474 268, 347.889 268 C 345.991 268, 345.848 268.379, 346.478 271.750 C 346.864 273.813, 347.644 276.063, 348.212 276.750 C 350.972 280.090, 356 276.201, 356 270.728 C 356 267.547, 353.919 263.008, 351.566 261.055 C 349.899 259.671, 349.403 256, 350.883 256 C 351.369 256, 352.002 256.900, 352.290 258 C 352.918 260.403, 354.551 260.613, 355.400 258.400 C 356.999 254.232, 351.210 249.190, 348.238 252.162 M 118 262.739 C 118 274.752, 118.694 276.619, 123.516 277.565 C 125.723 277.998, 127.264 277.580, 129.266 276.006 C 131.947 273.897, 132 273.642, 132 262.927 L 132 252 129.500 252 L 127 252 127 262.500 C 127 272.252, 126.861 273, 125.045 273 C 122.614 273, 121.839 269.293, 122.225 259.500 C 122.484 252.905, 122.370 252.482, 120.250 252.180 C 118.035 251.866, 118 252.030, 118 262.739 M 133.393 253.582 C 133.727 254.452, 134 255.352, 134 255.582 C 134 255.812, 134.900 256, 136 256 C 137.873 256, 138 256.667, 138 266.500 L 138 277 140.500 277 L 143 277 143 266.500 C 143 256.667, 143.127 256, 145 256 C 146.333 256, 147 255.333, 147 254 C 147 252.188, 146.333 252, 139.893 252 C 133.823 252, 132.875 252.231, 133.393 253.582 M 148 253.930 C 148 255.166, 148.804 255.976, 150.235 256.180 C 151.654 256.383, 152.504 257.230, 152.563 258.500 C 152.615 259.600, 152.735 264.212, 152.829 268.750 C 152.984 276.226, 153.184 277, 154.965 277 C 156.772 277, 156.953 276.176, 157.215 266.750 C 157.487 256.982, 157.606 256.485, 159.750 256.180 C 161.196 255.975, 162 255.171, 162 253.930 C 162 252.207, 161.249 252, 155 252 C 148.751 252, 148 252.207, 148 253.930 M 164.997 252.250 C 164.987 253.085, 160.849 273.814, 160.405 275.250 C 159.993 276.586, 160.442 277, 162.308 277 C 164.221 277, 164.880 276.351, 165.350 274 C 165.783 271.837, 166.522 271, 168 271 C 169.478 271, 170.217 271.837, 170.650 274 C 171.123 276.367, 171.774 277, 173.733 277 C 175.945 277, 176.140 276.699, 175.519 274.250 C 175.136 272.738, 174.190 268.125, 173.418 264 C 171.091 251.574, 171.285 252, 167.981 252 C 166.341 252, 164.999 252.113, 164.997 252.250 M 177.848 259.750 C 177.710 266.821, 177.746 274.362, 177.928 276.250 C 177.968 276.663, 178.900 277, 180 277 C 181.758 277, 182 276.333, 182 271.500 C 182 266.027, 182.403 265.450, 185.418 266.607 C 186.562 267.046, 187 268.568, 187 272.107 C 187 276.729, 187.146 277, 189.640 277 C 192.271 277, 192.277 276.981, 191.555 271.250 C 191.157 268.087, 190.864 264.600, 190.904 263.500 C 190.944 262.400, 191.026 260.024, 191.086 258.221 C 191.250 253.342, 189.587 252, 183.378 252 L 178 252 177.848 259.750 M 291 264.443 C 291 276.333, 291.106 277, 293 277 C 294.724 277, 295 276.333, 295 272.161 C 295 267.997, 295.342 267.165, 297.446 266.207 C 300.301 264.906, 301.804 259.198, 300.371 255.098 C 299.615 252.935, 298.755 252.449, 295.231 252.193 L 291 251.885 291 264.443 M 302 264.500 C 302 274.665, 302.267 277, 303.428 277 C 304.410 277, 305.072 275.274, 305.546 271.476 C 306.114 266.929, 306.481 266.154, 307.618 267.098 C 308.409 267.754, 309 270.118, 309 272.622 C 309 276.939, 309.047 277, 312.421 277 C 315.408 277, 315.925 276.620, 316.500 274 C 316.862 272.350, 317.798 271, 318.579 271 C 319.491 271, 320 272.075, 320 274 C 320 276.385, 320.432 277, 322.108 277 C 323.789 277, 324.107 276.543, 323.675 274.750 C 323.376 273.512, 322.583 267.887, 321.911 262.250 C 320.770 252.669, 320.545 252, 318.454 252 C 316.368 252, 316.099 252.779, 314.474 263.532 C 313.515 269.875, 312.540 274.873, 312.307 274.640 C 312.074 274.408, 311.875 269.784, 311.863 264.367 C 311.852 258.949, 311.373 253.950, 310.799 253.258 C 310.225 252.566, 308.010 252, 305.878 252 L 302 252 302 264.500 M 325 264.443 L 325 277 328.378 277 C 330.235 277, 332.321 276.318, 333.012 275.485 C 334.621 273.547, 335.416 261.709, 334.288 256.500 C 333.459 252.677, 333.235 252.486, 329.210 252.193 L 325 251.885 325 264.443 M 336.807 264.502 L 336.500 277.004 340.750 277.002 C 344.616 277, 345 276.774, 345 274.500 C 345 272.500, 344.500 272, 342.500 272 C 340.389 272, 340 271.533, 340 269 C 340 266.651, 340.441 266, 342.031 266 C 343.149 266, 344.339 265.280, 344.677 264.399 C 345.390 262.542, 343.332 260.935, 341.261 261.730 C 340.196 262.139, 339.923 261.552, 340.170 259.388 C 340.411 257.280, 341.108 256.414, 342.750 256.180 C 344.196 255.975, 345 255.171, 345 253.930 C 345 252.350, 344.286 252, 341.057 252 L 337.114 252 336.807 264.502 M 357.133 264.500 C 357.119 276.211, 357.241 277, 359.059 277 C 360.745 277, 361 276.277, 361 271.500 C 361 267.278, 361.348 266, 362.500 266 C 363.652 266, 364 267.278, 364 271.500 C 364 276.333, 364.242 277, 366 277 C 367.893 277, 368 276.333, 368 264.500 C 368 252.667, 367.893 252, 366 252 C 364.296 252, 364 252.667, 364 256.500 C 364 259.833, 363.611 261, 362.500 261 C 361.389 261, 361 259.833, 361 256.500 C 361 252.724, 360.690 252, 359.074 252 C 357.276 252, 357.147 252.832, 357.133 264.500 M 182 259 C 182 261.683, 182.327 262.093, 184.250 261.820 C 185.898 261.585, 186.500 260.831, 186.500 259 C 186.500 257.169, 185.898 256.415, 184.250 256.180 C 182.327 255.907, 182 256.317, 182 259 M 295 259 C 295 260.650, 295.450 262, 296 262 C 296.550 262, 297 260.650, 297 259 C 297 257.350, 296.550 256, 296 256 C 295.450 256, 295 257.350, 295 259 M 305.285 259.044 C 305.115 261.485, 305.430 262.064, 306.785 261.803 C 308.945 261.387, 309.128 256.647, 307 256.241 C 305.962 256.042, 305.434 256.906, 305.285 259.044 M 328 264.500 C 328 271.389, 328.284 273, 329.500 273 C 330.716 273, 331 271.389, 331 264.500 C 331 257.611, 330.716 256, 329.500 256 C 328.284 256, 328 257.611, 328 264.500 M 167 264 C 167 265.650, 167.450 267, 168 267 C 168.550 267, 169 265.650, 169 264 C 169 262.350, 168.550 261, 168 261 C 167.450 261, 167 262.350, 167 264 M 317.751 263.524 C 317.485 264.912, 317.658 266.289, 318.134 266.583 C 318.610 266.877, 319 265.741, 319 264.059 C 319 260.347, 318.407 260.092, 317.751 263.524 M 216.652 265.166 C 215.310 270.179, 214.370 270, 242.003 270 L 268.006 270 266.680 266.750 L 265.355 263.500 241.316 263.166 L 217.277 262.833 216.652 265.166 M 208.178 267.275 C 207.451 268.157, 207.004 270.144, 207.185 271.690 L 207.514 274.500 208.820 272.198 C 209.538 270.933, 209.985 268.946, 209.813 267.783 C 209.531 265.882, 209.367 265.831, 208.178 267.275 M 274 268.686 C 274 270.374, 274.675 272.315, 275.500 273 C 276.762 274.048, 276.995 273.869, 276.968 271.872 C 276.951 270.568, 276.276 268.626, 275.468 267.559 C 274.075 265.716, 274 265.774, 274 268.686 M 40.378 274.437 C 34.035 277.198, 32.661 282.674, 35.395 294.296 C 36.145 297.484, 36.972 300.305, 37.232 300.565 C 37.492 300.826, 46.209 299.211, 56.603 296.978 C 88.705 290.080, 85.292 291.212, 84.590 287.699 C 84.254 286.020, 83.799 284.466, 83.579 284.246 C 83.152 283.818, 66.976 286.688, 64.538 287.624 C 63.543 288.006, 62.887 287.285, 62.461 285.341 C 60.300 275.489, 57.675 272.987, 49.561 273.039 C 46.228 273.061, 42.095 273.690, 40.378 274.437 M 405.477 277.272 C 405.114 279.207, 405.274 281.644, 405.833 282.688 C 407.029 284.923, 414.701 287.513, 426.008 289.501 C 435.316 291.138, 438.509 290.421, 440.058 286.347 C 441.675 282.094, 440.869 280.622, 436.491 279.831 C 434.296 279.435, 428.225 278.153, 423 276.983 C 417.775 275.812, 411.843 274.607, 409.818 274.305 C 406.257 273.773, 406.115 273.870, 405.477 277.272 M 232.490 280.181 C 242.472 285.256, 242.483 285.259, 245.490 283.527 C 247.146 282.574, 251.088 280.445, 254.250 278.796 C 257.413 277.147, 260 275.618, 260 275.399 C 260 275.179, 251.563 275.023, 241.250 275.051 L 222.500 275.102 232.490 280.181 M 212.471 283.750 C 211.555 288.012, 210.149 294.137, 209.347 297.361 C 208.544 300.584, 208.064 303.398, 208.280 303.613 C 208.495 303.829, 215.046 300.459, 222.837 296.126 C 232.972 290.487, 236.645 287.972, 235.751 287.284 C 235.063 286.755, 230.675 284.398, 226 282.045 C 221.325 279.693, 217.072 277.370, 216.550 276.884 C 214.683 275.147, 214.114 276.104, 212.471 283.750 M 258.269 281.769 C 252.642 284.921, 248.029 287.729, 248.019 288.008 C 248.008 288.288, 254.750 292.035, 263 296.335 C 271.250 300.635, 278 303.810, 278 303.391 C 278 301.709, 269.625 276.001, 269.082 276.019 C 268.762 276.029, 263.896 278.616, 258.269 281.769 M 45.500 280.724 C 42.008 281.582, 41 283.128, 41 287.622 C 41 291.755, 41.154 291.995, 43.750 291.904 C 45.263 291.851, 48.750 291.280, 51.500 290.636 C 55.999 289.581, 56.467 289.215, 56.168 286.982 C 55.367 280.981, 52.144 279.090, 45.500 280.724 M 201.165 291.647 C 198.483 295.764, 199.479 298.152, 202.684 295.290 C 204.142 293.988, 204.526 292.759, 204.094 290.782 L 203.500 288.064 201.165 291.647 M 281 290.842 C 281 292.874, 281.663 294.285, 282.939 294.968 C 286.749 297.007, 286.442 292.271, 282.555 289.045 C 281.206 287.926, 281 288.163, 281 290.842 M 226.500 299.476 L 211.500 307.926 241.500 308.213 C 258 308.371, 272.038 308.271, 272.696 307.991 C 273.753 307.540, 244.023 290.980, 242.216 291.013 C 241.822 291.020, 234.750 294.828, 226.500 299.476 M 286.469 304.097 C 286.036 305.461, 286.369 306.797, 287.397 307.826 C 288.868 309.296, 289 309.168, 289 306.273 C 289 302.487, 287.413 301.122, 286.469 304.097 M 197.432 306.250 C 197.663 307.488, 197.885 308.924, 197.926 309.441 C 197.967 309.959, 198.625 309.528, 199.389 308.483 C 200.970 306.321, 200.458 304, 198.399 304 C 197.504 304, 197.161 304.797, 197.432 306.250 M 63.270 308.449 C 59.557 310.101, 56.009 315.303, 56.004 319.101 C 55.992 327.211, 61.812 332.619, 69.607 331.741 C 74.709 331.166, 77.661 328.953, 79.673 324.197 C 83.864 314.294, 73.181 304.038, 63.270 308.449 M 293.479 312.750 C 293.652 314.860, 295.987 319.347, 296.594 318.739 C 297.028 318.305, 294.252 311, 293.654 311 C 293.478 311, 293.399 311.788, 293.479 312.750 M 205.662 314.438 C 205.302 315.377, 205.871 315.984, 207.305 316.188 C 208.512 316.359, 225.794 316.377, 245.709 316.226 C 277.147 315.988, 281.844 315.757, 281.352 314.476 C 280.513 312.288, 206.502 312.250, 205.662 314.438 M 404.763 314.565 C 397.129 318.707, 397.254 331.494, 404.967 335.483 C 412.670 339.466, 422.120 335.168, 423.490 327.060 C 425.192 316.987, 414.027 309.539, 404.763 314.565 M 191.718 316.680 C 191.027 320.278, 191.518 320.770, 193.012 317.978 C 193.764 316.573, 193.840 315.440, 193.223 314.823 C 192.606 314.206, 192.065 314.873, 191.718 316.680 M 287.162 317 C 288.569 321.340, 289 321.893, 289 319.358 C 289 318.271, 288.331 316.509, 287.514 315.441 C 286.163 313.677, 286.131 313.820, 287.162 317 M 198.651 318.468 C 198.341 319.275, 198.518 320.202, 199.044 320.527 C 199.570 320.852, 200 320.191, 200 319.059 C 200 316.644, 199.444 316.401, 198.651 318.468 M 214.111 321.444 C 214.356 321.689, 221.484 324.869, 229.952 328.512 L 245.349 335.135 257.424 329.445 C 264.066 326.315, 270.625 323.153, 272 322.417 C 274.136 321.275, 270.071 321.074, 244.083 321.040 C 227.354 321.018, 213.867 321.200, 214.111 321.444 M 272 327.559 C 255.392 335.501, 251.975 337.381, 252.782 338.132 C 253.177 338.501, 258 340.669, 263.500 342.951 C 269 345.233, 274.400 347.513, 275.500 348.019 C 286.162 352.919, 293.556 355.726, 293.823 354.975 C 294.114 354.154, 284.239 321.958, 283.718 322.030 C 283.598 322.047, 278.325 324.535, 272 327.559 M 203.537 324.146 C 203.089 325.412, 196 356.939, 196 357.667 C 196 358.709, 199.745 357.136, 216.456 349.074 C 226.632 344.165, 235.867 339.859, 236.979 339.507 C 238.091 339.154, 239 338.535, 239 338.132 C 239 337.728, 231.912 334.399, 223.250 330.732 C 203.145 322.222, 204.105 322.543, 203.537 324.146 M 293 328.084 C 293 333.078, 293.260 333.722, 295.904 335.284 C 299.614 337.476, 300.650 337.445, 301.258 335.123 C 301.562 333.958, 300.442 331.588, 298.304 328.873 C 292.984 322.119, 293 322.121, 293 328.084 M 190.186 330.538 C 187.562 334.260, 187.205 335.410, 188.013 337.534 L 188.979 340.075 191.990 337.850 C 194.516 335.982, 195 334.940, 195 331.371 C 195 329.032, 194.623 326.885, 194.163 326.601 C 193.703 326.316, 191.913 328.088, 190.186 330.538 M 81 339.512 C 67.706 348.919, 64.597 352.235, 65.383 356.166 C 66.719 362.847, 72.563 367.045, 77.925 365.176 C 80.604 364.242, 92.118 356.691, 100.730 350.220 C 103.397 348.216, 103.783 347.463, 102.945 345.897 C 101.615 343.413, 100.341 343.504, 96.594 346.351 C 88.802 352.272, 76.628 360, 75.094 360 C 72.954 360, 71 358.085, 71 355.987 C 71 353.807, 74.681 350.578, 86.235 342.625 C 95.133 336.499, 95.864 335.755, 94.744 333.962 C 94.070 332.883, 93.065 332.018, 92.509 332.041 C 91.954 332.063, 86.775 335.425, 81 339.512 M 381.400 340.400 C 374.664 347.136, 377.363 353.360, 390.832 362.153 C 399.416 367.757, 404.115 369.360, 407.471 367.831 C 410.471 366.465, 412.387 362.805, 411.776 359.610 C 411.380 357.538, 411.656 357.114, 413.286 357.288 C 418.636 357.857, 414.384 353.109, 402.829 345.607 C 400.159 343.874, 400.157 343.874, 397.573 347.678 L 394.988 351.482 397.200 353.151 C 399.183 354.647, 399.528 354.660, 400.539 353.277 C 401.549 351.896, 401.941 351.915, 404.294 353.457 C 405.740 354.404, 407.189 356.022, 407.516 357.052 C 408.221 359.271, 406.451 363, 404.692 363 C 402.733 363, 391.128 355.857, 386.639 351.888 C 382.782 348.478, 382.623 348.122, 383.805 345.529 C 384.971 342.970, 385.355 342.826, 389.405 343.433 C 392.896 343.957, 393.876 343.765, 394.377 342.461 C 395.303 340.047, 395.280 340.015, 391.532 338.449 C 386.516 336.353, 385.192 336.608, 381.400 340.400 M 233.500 346.096 C 226.900 349.304, 215.313 354.874, 207.750 358.475 C 200.188 362.075, 194 365.539, 194 366.172 C 194 367.029, 201.844 367.154, 224.750 366.663 C 241.662 366.300, 264.837 366.003, 276.250 366.002 C 295.394 366, 297 365.864, 297 364.239 C 297 362.959, 294.203 361.277, 286.750 358.075 C 281.113 355.654, 274.250 352.669, 271.500 351.443 C 268.750 350.217, 262 347.315, 256.500 344.994 C 251 342.673, 246.275 340.659, 246 340.518 C 245.725 340.378, 240.100 342.887, 233.500 346.096 M 295.387 343.476 C 296.485 346.985, 298 347.275, 298 343.976 C 298 342.928, 297.175 341.629, 296.166 341.089 C 294.473 340.183, 294.413 340.367, 295.387 343.476 M 192.551 343.339 C 191.101 344.399, 190.943 345.075, 191.793 346.589 C 192.841 348.456, 192.881 348.454, 193.529 346.500 C 195.249 341.310, 195.263 341.356, 192.551 343.339 M 301.211 349.665 C 299.926 353.851, 300.318 355, 303.033 355 C 304.174 355, 305.613 353.715, 306.592 351.822 C 308.137 348.834, 308.128 348.566, 306.426 347.322 C 303.559 345.226, 302.415 345.740, 301.211 349.665 M 184.223 349.557 C 181.484 351.475, 181.496 351.795, 184.429 355.382 C 186.555 357.981, 186.980 358.127, 188.775 356.870 C 190.675 355.539, 190.692 355.307, 189.147 351.738 C 187.304 347.479, 187.234 347.448, 184.223 349.557 M 372.040 352.925 C 370.978 354.910, 372.290 356.415, 385.500 368.370 C 387.700 370.361, 389.150 371.993, 388.722 371.995 C 388.295 371.998, 383.020 369.750, 377 367 C 370.980 364.250, 365.476 362, 364.768 362 C 364.060 362, 362.937 362.871, 362.272 363.936 C 361.184 365.678, 362.321 367.056, 373.615 377.686 C 380.518 384.184, 386.733 389.632, 387.425 389.793 C 388.117 389.954, 389.303 389.340, 390.059 388.428 C 391.263 386.979, 391.063 386.456, 388.468 384.259 C 384.440 380.850, 373 369.919, 373 369.480 C 373 369.184, 386.857 375.407, 394.785 379.264 C 396.681 380.186, 397.423 380.021, 399.150 378.294 L 401.231 376.214 393.382 368.857 C 389.066 364.811, 383.011 359.137, 379.927 356.250 C 376.842 353.363, 374.038 351, 373.695 351 C 373.351 351, 372.607 351.866, 372.040 352.925 M 100.480 361.300 C 96.069 365.260, 89.994 370.616, 86.980 373.201 L 81.500 377.903 83.500 379.917 L 85.500 381.932 91.311 376.829 L 97.123 371.727 100.359 374.863 C 105.164 379.520, 109.750 379.250, 115 374 C 119.169 369.831, 119.853 367.144, 117.715 363.337 C 116.132 360.520, 110.160 353.986, 109.226 354.050 C 108.827 354.077, 104.891 357.339, 100.480 361.300 M 309.590 355.627 C 309.219 356.594, 309.491 357.695, 310.216 358.155 C 312.475 359.588, 313.103 359.063, 311.900 356.750 C 310.303 353.681, 310.331 353.695, 309.590 355.627 M 178.771 359.418 C 178.239 362.199, 178.660 362.501, 181 361.021 C 182.322 360.185, 182.308 359.881, 180.882 358.454 C 179.392 356.963, 179.226 357.039, 178.771 359.418 M 105.119 364.630 L 100.888 368.252 103.118 370.626 C 105.851 373.535, 106.990 373.582, 110.365 370.927 C 113.436 368.512, 113.779 365.015, 111.176 362.659 C 109.461 361.107, 109.096 361.226, 105.119 364.630 M 304.161 364.547 C 302.249 368.741, 302.799 369.175, 306.992 366.780 C 311.584 364.158, 311.876 363.468, 308.750 362.630 C 305.469 361.751, 305.426 361.769, 304.161 364.547 M 180.688 366.283 C 176.992 368.165, 176.938 368.268, 178.918 369.655 C 180.041 370.442, 182.494 371.726, 184.370 372.510 C 187.701 373.902, 187.791 373.876, 188.267 371.381 C 188.598 369.655, 188.066 368.101, 186.628 366.584 L 184.500 364.341 180.688 366.283 M 354.139 371.026 L 349.777 374.970 351.486 381.943 C 352.426 385.778, 353.037 389.390, 352.843 389.970 C 352.650 390.549, 350.555 388.543, 348.187 385.512 C 343.538 379.558, 342.903 379.207, 340.980 381.524 C 339.498 383.310, 339.864 383.886, 353.359 400.995 C 362.193 412.196, 362.223 412.221, 364.201 410.243 C 366.179 408.265, 366.175 408.247, 362.592 403.553 C 360.617 400.965, 359 397.930, 359 396.808 C 359 394.932, 359.178 394.885, 361.250 396.220 C 362.488 397.017, 365.645 398.916, 368.266 400.439 C 372.862 403.110, 373.125 403.148, 375.615 401.517 L 378.197 399.825 369.849 394.905 C 365.257 392.199, 360.714 389.734, 359.752 389.426 C 358.791 389.118, 357.789 387.884, 357.525 386.683 C 356.269 380.963, 354.918 371.749, 355.282 371.385 C 355.506 371.161, 361.354 376.788, 368.279 383.890 C 380.461 396.384, 380.924 396.741, 382.589 394.901 C 384.220 393.100, 384.210 392.883, 382.405 390.758 C 378.734 386.438, 359.592 367, 359.049 367.041 C 358.747 367.064, 356.537 368.857, 354.139 371.026 M 78.195 369.818 C 75.957 371.540, 75.944 371.640, 77.752 373.275 C 79.432 374.796, 79.824 374.811, 81.788 373.436 C 83.637 372.141, 83.779 371.620, 82.741 369.956 C 81.261 367.587, 81.101 367.582, 78.195 369.818 M 203.511 371.948 C 194.369 372.407, 192.469 372.777, 192.207 374.150 C 191.966 375.410, 193.734 376.399, 199.696 378.339 C 214.380 383.117, 223.231 384.407, 241 384.361 C 262.320 384.305, 277.126 381.199, 295.223 372.985 L 299.500 371.044 257 371.220 C 233.625 371.316, 209.555 371.644, 203.511 371.948 M 125.500 375.406 C 122.030 376.941, 117.202 382.013, 111.215 390.413 C 106.116 397.566, 105.579 402.316, 109.457 405.959 C 111.356 407.743, 112.610 408.128, 114.981 407.654 C 117.733 407.103, 117.947 407.230, 117.060 408.889 C 116.010 410.850, 116.557 412, 118.539 412 C 119.629 412, 131 398.712, 131 397.438 C 131 396.510, 125.551 392.065, 124.372 392.032 C 122.052 391.967, 120.800 394.707, 122.157 396.879 C 123.256 398.639, 123.104 399.260, 121.040 401.458 C 118.137 404.548, 114.475 404.757, 112.956 401.918 C 111.709 399.587, 113.871 395.632, 121.266 386.723 C 125.831 381.224, 128.296 379.642, 130.973 380.492 C 133.457 381.280, 133.970 383.842, 132.318 387.212 C 131.127 389.640, 131.191 390.032, 132.928 390.962 C 135.636 392.411, 135.764 392.357, 137.474 389.050 C 140.408 383.377, 138.684 378.956, 132.240 375.624 C 128.566 373.724, 129.251 373.746, 125.500 375.406 M 92.199 384.704 C 90.267 386.328, 90.204 386.688, 91.544 388.459 C 93.008 390.394, 93.053 390.391, 95.231 388.213 C 97.223 386.221, 97.287 385.858, 95.886 384.458 C 94.486 383.057, 94.129 383.081, 92.199 384.704 M 331.750 387.758 C 330.238 388.696, 329 389.994, 329 390.642 C 329 391.632, 341.679 424.013, 342.317 424.650 C 342.434 424.767, 343.585 424.067, 344.875 423.094 C 347.136 421.389, 347.162 421.215, 345.610 418.212 C 343.368 413.877, 343.573 412.683, 346.899 410.719 C 349.785 409.014, 349.812 409.021, 352.745 412.362 C 355.564 415.573, 355.810 415.655, 358.442 414.277 L 361.192 412.835 347.881 399.418 C 340.561 392.038, 334.555 386.012, 334.535 386.027 C 334.516 386.041, 333.262 386.820, 331.750 387.758 M 140.691 389.411 C 135.334 394.375, 127 409.563, 127 414.360 C 127 417.564, 129.775 421.008, 133.668 422.635 C 136.669 423.889, 137.476 423.868, 140.441 422.461 C 143.789 420.872, 148.651 414.525, 152.899 406.199 C 154.077 403.889, 155.214 402, 155.427 402 C 155.897 402, 155.778 402.534, 151.989 417.314 C 150.323 423.811, 149.194 429.504, 149.478 429.965 C 149.763 430.426, 151.327 431.267, 152.952 431.834 C 155.879 432.854, 155.981 432.762, 163.141 422.682 C 178.968 400.401, 178.570 400.880, 177.407 405.513 C 176.867 407.666, 177.222 408.182, 179.888 409.111 C 181.600 409.708, 183 410.323, 183 410.479 C 183 410.635, 180.753 417.204, 178.008 425.077 C 174.240 435.880, 173.320 439.585, 174.258 440.180 C 177.594 442.299, 178.557 440.922, 182.945 427.750 C 185.373 420.462, 187.764 413.962, 188.257 413.304 C 188.888 412.464, 189.901 412.392, 191.661 413.061 C 194.592 414.176, 195.569 413.755, 196.270 411.077 C 196.705 409.413, 195.646 408.721, 189.140 406.415 C 184.938 404.925, 179.508 402.863, 177.072 401.831 C 174.637 400.799, 172.314 400.303, 171.910 400.728 C 171.505 401.152, 167.763 406.675, 163.594 413 C 159.425 419.325, 156.018 423.825, 156.022 423 C 156.027 422.175, 157.596 416.100, 159.510 409.500 C 161.424 402.900, 162.992 397.010, 162.995 396.411 C 162.998 395.811, 161.956 394.845, 160.680 394.264 C 158.832 393.422, 158.131 393.542, 157.239 394.853 C 156.249 396.307, 156.111 396.242, 156.059 394.301 C 155.981 391.374, 150.135 387, 146.302 387 C 144.507 387, 142.242 387.973, 140.691 389.411 M 144.818 393.042 C 143.892 393.582, 141.008 397.506, 138.408 401.762 C 134.968 407.391, 133.655 410.590, 133.590 413.500 C 133.509 417.112, 133.757 417.530, 136.155 417.807 C 139.296 418.171, 141.862 415.172, 147.399 404.667 C 151.486 396.912, 151.829 394.514, 149.066 393.035 C 146.770 391.806, 146.937 391.806, 144.818 393.042 M 316.056 396.564 C 311.961 398.484, 308.492 400.175, 308.345 400.321 C 308.199 400.468, 308.348 401.616, 308.677 402.874 C 309.114 404.544, 309.778 405.005, 311.138 404.581 C 312.162 404.261, 313.807 403.747, 314.793 403.437 C 316.204 402.995, 317.093 404.010, 318.954 408.187 C 322.731 416.665, 329.169 430.470, 329.513 430.831 C 330.051 431.396, 334 428.978, 334 428.084 C 334 427.619, 331.300 421.543, 328 414.582 C 324.700 407.620, 322 401.482, 322 400.941 C 322 400.400, 323.125 399.445, 324.500 398.818 C 327.143 397.614, 327.366 397.116, 326.393 394.582 C 325.552 392.389, 324.542 392.583, 316.056 396.564 M 335.009 394.346 C 335.004 394.811, 335.661 396.386, 336.469 397.846 C 337.276 399.306, 338.603 402.188, 339.418 404.250 C 341.070 408.435, 341.969 408.808, 344.252 406.250 C 345.695 404.634, 345.402 404.080, 340.416 399 C 337.447 395.975, 335.014 393.881, 335.009 394.346 M 296 404.623 C 295.175 404.905, 292.874 405.821, 290.887 406.658 L 287.274 408.180 293.137 425.232 C 296.362 434.610, 299 442.402, 299 442.548 C 299 443.111, 303.056 441.718, 303.498 441.003 C 303.755 440.588, 302.826 436.989, 301.434 433.005 C 300.043 429.022, 299.135 425.531, 299.418 425.248 C 299.701 424.966, 301.598 424.681, 303.633 424.617 C 307.251 424.503, 307.388 424.634, 309.749 430.500 C 312.748 437.951, 313.086 438.298, 316.193 437.117 L 318.711 436.159 314.861 428.080 C 312.396 422.906, 310.431 420, 309.398 420 C 308.249 420, 307.997 419.497, 308.522 418.250 C 310.119 414.451, 309.951 412.339, 307.746 408.500 C 305.721 404.973, 304.979 404.477, 301.475 404.305 C 299.289 404.198, 296.825 404.341, 296 404.623 M 278.500 409.997 C 276.850 410.441, 273.767 411.102, 271.648 411.466 C 267.944 412.103, 267.812 412.261, 268.199 415.582 L 268.602 419.034 266.390 416.267 C 264.271 413.615, 263.872 413.517, 256.839 413.898 C 252.803 414.117, 248.037 414.342, 246.250 414.398 C 244.463 414.454, 242.982 414.950, 242.961 415.500 C 242.631 423.910, 241.713 438.572, 241.503 438.803 C 241.239 439.093, 239.030 432.078, 235.503 419.750 C 234.008 414.525, 233.605 414, 231.080 414 L 228.302 414 227.656 423.750 C 227.301 429.113, 227.008 437.438, 227.005 442.250 C 227 450.918, 227.023 451, 229.500 451 L 232 451 232.070 440.250 C 232.175 424.184, 233.027 423.828, 237.059 438.162 L 240.530 450.500 243.765 450.813 L 247 451.127 247 435.863 C 247 426.486, 247.357 420.966, 247.926 421.550 C 248.435 422.072, 249.584 427.900, 250.480 434.500 C 252.985 452.960, 252.152 451.336, 258.699 450.518 C 269.715 449.142, 271.603 446.588, 270.762 434.199 L 270.240 426.500 272.853 437.341 L 275.466 448.181 279.483 447.550 C 281.692 447.203, 285.188 446.470, 287.250 445.921 C 290.552 445.042, 291 444.556, 291 441.854 C 291 439.374, 290.673 438.911, 289.295 439.440 C 288.358 439.800, 285.724 440.350, 283.443 440.663 C 279.409 441.216, 279.279 441.143, 278.648 437.991 C 277.396 431.729, 277.692 431.106, 282.500 429.896 C 287.008 428.760, 287.757 427.745, 286.061 425.064 C 285.322 423.896, 284.296 423.824, 280.561 424.679 C 275.565 425.822, 275.400 425.663, 274.744 419.037 C 274.526 416.833, 275.005 416.479, 279.305 415.669 C 283.680 414.845, 284.083 414.535, 283.805 412.209 C 283.451 409.243, 282.608 408.892, 278.500 409.997 M 295.750 409.689 C 294.788 409.941, 294 410.773, 294 411.539 C 294 412.613, 296.327 418.569, 297.627 420.824 C 297.730 421.002, 299.206 420.428, 300.907 419.548 C 303.133 418.397, 304 417.236, 304 415.409 C 304 409.963, 301.455 408.199, 295.750 409.689 M 205.543 412.250 C 204.714 414.876, 201.986 436.692, 201.993 440.639 C 202.003 446.416, 204.418 449.067, 210.270 449.727 C 216.268 450.403, 219.571 448.387, 220.874 443.253 C 221.398 441.189, 222.596 433.936, 223.536 427.135 C 224.976 416.710, 225.029 414.633, 223.872 413.900 C 220.295 411.634, 219.480 414.004, 217.090 433.607 C 216.020 442.380, 214.721 445, 211.440 445 C 207.252 445, 206.833 441.721, 209.057 426.353 C 210.643 415.392, 210.786 412.482, 209.771 411.837 C 207.892 410.645, 205.991 410.830, 205.543 412.250 M 255.100 418.917 C 253.947 419.647, 253.898 420.831, 254.824 425.651 C 255.442 428.868, 256.246 434.538, 256.612 438.250 C 257.219 444.415, 257.474 445, 259.556 445 C 264.308 445, 265 444.114, 265 438.030 C 265 423.194, 260.887 415.253, 255.100 418.917 M 182.560 439.618 C 181.811 442.599, 181.773 442.528, 184.634 443.406 C 186.364 443.937, 186.895 443.553, 187.442 441.375 C 187.883 439.619, 187.663 438.403, 186.808 437.860 C 184.510 436.403, 183.234 436.931, 182.560 439.618" stroke="none" fill="#000000" fill-rule="evenodd"/><path d="M 231 10.639 C 193.368 13.399, 168.913 19.637, 139.319 34.026 C 127.873 39.592, 101.157 56.042, 99 58.853 C 98.725 59.211, 95.239 62.141, 91.253 65.363 C 81.360 73.361, 65.057 90.563, 56.014 102.546 C -1.657 178.966, -6.083 284.050, 44.982 364.500 C 68.511 401.568, 98.616 428.718, 138.500 448.836 C 202.171 480.952, 280.174 480.462, 344.830 447.540 C 413.425 412.611, 460.095 346.204, 469.574 270.038 C 472.187 249.038, 471.108 218.012, 467.034 197 C 455.332 136.655, 417.981 81.473, 366 47.738 C 335.898 28.202, 299.685 15.375, 265.500 12.142 C 251.873 10.853, 236.947 10.202, 231 10.639 M 239.667 30.667 C 239.300 31.033, 238.987 34.296, 238.970 37.917 C 238.954 41.538, 238.313 52.146, 237.545 61.492 C 236.778 70.837, 236.229 78.557, 236.325 78.646 C 236.421 78.736, 238.075 78.965, 240 79.155 C 243.362 79.486, 243.510 79.362, 243.744 76 C 243.878 74.075, 244.254 69.237, 244.579 65.250 L 245.171 58 248.363 58 C 250.119 58, 252.555 58.701, 253.777 59.557 C 255.807 60.978, 256 61.933, 256 70.538 C 256 81.084, 255.384 80.316, 264.668 81.332 L 268.836 81.788 271.049 75.868 C 272.703 71.445, 273.672 70.063, 274.882 70.400 C 275.772 70.648, 277.962 71.145, 279.750 71.505 L 283 72.159 283 78.463 C 283 84.155, 283.218 84.825, 285.250 85.370 C 291.322 86.997, 291 88.353, 291 61.119 L 291 36.237 286.352 35.067 C 283.795 34.423, 281.341 34.259, 280.899 34.701 C 280.456 35.144, 276.664 43.605, 272.472 53.503 C 268.280 63.401, 264.467 71.893, 264.001 72.374 C 263.533 72.855, 263.230 70.005, 263.326 66.037 C 263.480 59.650, 263.243 58.617, 261.250 57.002 C 258.636 54.884, 258.407 54, 260.474 54 C 262.836 54, 265 48.551, 265 42.605 C 265 35.561, 262.386 32.187, 255.971 30.950 C 250.590 29.912, 240.595 29.738, 239.667 30.667 M 209.374 31.985 C 208.204 32.458, 206.179 34.342, 204.874 36.172 C 202.852 39.006, 202.515 40.612, 202.600 47 C 202.811 62.795, 206.984 77.688, 212.080 80.833 C 213.268 81.567, 216.184 82.167, 218.560 82.167 C 230.428 82.167, 233.825 74.590, 230.963 54.500 C 228.480 37.071, 224.609 30.948, 216.144 31.063 C 213.590 31.098, 210.543 31.513, 209.374 31.985 M 246.415 38.362 C 246.127 39.111, 246.029 42.374, 246.196 45.612 L 246.500 51.500 250.051 51.799 C 254.346 52.160, 256.824 49.858, 257.655 44.737 C 258.099 42.001, 257.759 40.759, 256.113 39.113 C 253.678 36.678, 247.252 36.180, 246.415 38.362 M 177 40.470 C 170.803 42.338, 169.557 43.058, 169.829 44.615 C 170.010 45.652, 172.823 55.813, 176.079 67.197 C 179.336 78.580, 182 88.197, 182 88.569 C 182 90.323, 178.576 86.067, 175.359 80.314 C 170.975 72.475, 169.550 71, 166.361 71 C 164.211 71, 163.972 70.688, 164.636 68.750 C 167.493 60.416, 158.915 48.340, 151.724 50.572 C 147.096 52.008, 135.888 58.130, 135.358 59.510 C 135.054 60.301, 135.687 62.423, 136.765 64.225 C 137.842 66.026, 141.201 72.225, 144.229 78 C 147.256 83.775, 151.437 91.738, 153.520 95.697 L 157.306 102.893 160.153 101.421 C 161.719 100.611, 163 99.459, 163 98.860 C 163 98.261, 160.944 93.968, 158.431 89.320 C 153.342 79.907, 153.484 78.563, 159.687 77.399 C 163.901 76.608, 164.909 77.469, 169.983 86.193 C 172.627 90.739, 174.189 92.452, 175.576 92.329 C 177.317 92.173, 188.984 88.350, 189.602 87.731 C 189.743 87.590, 188.590 83.205, 187.038 77.987 C 185.486 72.769, 184.388 68.214, 184.597 67.863 C 184.807 67.513, 186.545 66.933, 188.460 66.574 C 192.797 65.760, 197.571 61.844, 198.438 58.390 C 199.604 53.743, 197.174 45.327, 193.560 41.495 C 189.646 37.345, 187.758 37.228, 177 40.470 M 211.035 39.934 C 209.591 42.633, 209.742 48.420, 211.551 59.659 C 213.496 71.750, 215.054 75, 218.903 75 C 223.106 75, 224.277 72.881, 224.118 65.563 C 223.920 56.431, 221.202 41.881, 219.302 39.781 C 217.126 37.377, 212.357 37.465, 211.035 39.934 M 296.986 40.250 C 296.979 40.938, 296.709 42.483, 296.387 43.685 C 295.882 45.566, 296.370 46.023, 299.900 46.973 C 302.155 47.580, 304 48.660, 304 49.373 C 304 50.086, 303.156 53.332, 302.123 56.585 C 295.734 76.725, 293 85.895, 293 87.191 C 293 88.001, 294.487 89.121, 296.304 89.679 C 299.575 90.682, 299.622 90.651, 300.842 86.596 C 302.899 79.763, 309.063 59.759, 310.424 55.500 C 311.763 51.311, 312.679 50.946, 318.125 52.436 C 320.445 53.071, 320.881 52.779, 321.875 49.928 C 322.494 48.153, 323 46.569, 323 46.406 C 323 45.894, 300.297 39, 298.610 39 C 297.725 39, 296.994 39.563, 296.986 40.250 M 279.848 53.312 L 276.197 63.124 278.664 64.062 C 280.020 64.578, 281.523 65, 282.004 65 C 283.273 65, 284.179 57.503, 283.815 50 L 283.500 43.500 279.848 53.312 M 181.500 45.713 C 180.400 45.978, 179.169 46.504, 178.764 46.883 C 177.965 47.631, 180.755 58.758, 182.223 60.676 C 183.376 62.184, 188.829 60.057, 190.231 57.551 C 191.559 55.179, 190.288 49.288, 187.944 46.944 C 185.987 44.987, 185.168 44.831, 181.500 45.713 M 319.077 71.899 C 312.985 83.393, 308 93.239, 308 93.778 C 308 94.765, 313.807 97.601, 314.362 96.885 C 314.526 96.673, 316.699 92.675, 319.190 88 C 331.830 64.282, 337.182 53.854, 336.858 53.577 C 335.885 52.746, 332.013 51, 331.143 51 C 330.599 51, 325.170 60.405, 319.077 71.899 M 147.250 59.491 C 145.463 60.268, 144 61.163, 144 61.480 C 144 62.524, 150.017 74, 150.564 74 C 152.160 74, 157.083 70.713, 157.970 69.055 C 159.766 65.701, 155.633 57.952, 152.095 58.039 C 151.218 58.061, 149.037 58.714, 147.250 59.491 M 341.404 60.974 C 336.937 62.780, 325.738 78.951, 321.449 89.790 C 318.254 97.862, 321.975 105.714, 330.157 108.165 C 337.260 110.293, 342.347 106.588, 350.715 93.192 C 356.987 83.150, 360.335 74.598, 359.576 70.554 C 358.971 67.326, 355.354 63.197, 351.316 61.122 C 348.785 59.822, 344.415 59.757, 341.404 60.974 M 72.924 66.750 L 70.500 69.500 73.250 67.076 C 75.820 64.810, 76.459 64, 75.674 64 C 75.495 64, 74.258 65.237, 72.924 66.750 M 121.309 66.767 C 120.104 66.963, 117.179 68.845, 114.809 70.948 C 110.922 74.398, 110.509 75.200, 110.595 79.136 C 110.799 88.473, 126.613 111.397, 134.688 114.062 C 138.891 115.449, 143.743 113.977, 147.965 110.033 C 150.541 107.626, 151 106.462, 151 102.328 C 151 98.347, 150.153 96.001, 146.359 89.479 C 136.427 72.403, 128.857 65.539, 121.309 66.767 M 342.660 69.612 C 341.224 71.049, 337.337 76.751, 334.024 82.283 C 326.720 94.480, 325.996 99.106, 331.111 100.889 C 333.967 101.885, 334.467 101.712, 337.204 98.782 C 341.977 93.673, 352 75.979, 352 72.664 C 352 69.616, 349.704 67.087, 346.886 67.032 C 345.999 67.014, 344.097 68.176, 342.660 69.612 M 119.655 75.829 C 117.372 78.351, 117.593 80.746, 120.595 86 C 124.938 93.601, 133.382 104.848, 135.673 106.084 C 138.255 107.476, 142.854 106.544, 143.651 104.468 C 144.643 101.881, 143.174 98.486, 136.908 88.880 C 127.224 74.036, 123.694 71.366, 119.655 75.829 M 361.442 91.706 C 354.329 99.293, 346.825 107.300, 344.766 109.500 C 342.706 111.700, 341.017 113.759, 341.011 114.076 C 341.005 114.392, 342.053 115.640, 343.339 116.849 L 345.678 119.046 354.589 109.399 C 359.490 104.093, 364.789 98.345, 366.365 96.626 C 368.834 93.931, 369.135 93.811, 368.546 95.754 C 368.170 96.993, 364.795 104.418, 361.046 112.254 L 354.229 126.500 356.801 129.250 C 358.216 130.762, 359.674 132, 360.041 132 C 360.407 132, 366.960 125.156, 374.603 116.791 C 382.247 108.426, 389.730 100.397, 391.233 98.949 L 393.966 96.316 391.668 94.158 C 390.405 92.971, 389.019 92, 388.588 92 C 388.158 92, 385.712 94.354, 383.153 97.230 C 380.594 100.107, 375.461 105.619, 371.747 109.480 C 365.088 116.402, 365.016 116.444, 366.612 112.500 C 367.502 110.300, 370.890 102.895, 374.141 96.045 L 380.052 83.590 377.213 80.752 L 374.375 77.913 361.442 91.706 M 89.880 92.435 C 79.996 99.152, 82.921 107.868, 100.446 123.915 C 112.338 134.804, 118.485 136.369, 124.867 130.130 C 130.380 124.740, 130.197 118.927, 124.296 112.032 L 120.621 107.739 118.260 110.485 C 116.155 112.931, 116.059 113.408, 117.380 114.867 C 124.128 122.323, 121.328 128.835, 113.200 124.590 C 111.715 123.814, 106.338 118.925, 101.250 113.724 C 91.153 103.404, 89.692 100.009, 94.421 97.854 C 96.432 96.938, 97.374 97.130, 99.985 98.989 L 103.129 101.228 105.563 98.941 C 107.893 96.752, 107.922 96.571, 106.251 94.725 C 101.611 89.597, 95.346 88.721, 89.880 92.435 M 229 106.602 C 219.546 107.744, 211.694 109.308, 203.546 111.671 C 184.880 117.085, 183.742 116.921, 240 116.930 C 269.717 116.935, 290.866 116.571, 290 116.068 C 279.850 110.176, 244.640 104.711, 229 106.602 M 391.511 131.105 C 381.067 138.240, 372.136 144.464, 371.665 144.935 C 371.189 145.411, 373.520 149.824, 376.904 154.857 C 380.257 159.844, 383 164.566, 383 165.351 C 383 166.136, 383.835 167.809, 384.855 169.069 L 386.710 171.360 395.105 166.512 C 414.285 155.435, 427.552 147.623, 428.343 146.941 C 429.306 146.111, 426.267 141, 424.811 141 C 424.284 141, 416.573 145.210, 407.676 150.356 C 398.779 155.503, 390.375 160.301, 389 161.020 C 386.721 162.212, 386.620 162.182, 387.858 160.681 C 389.035 159.254, 388.735 158.308, 385.608 153.597 C 383.624 150.607, 382.017 147.787, 382.038 147.331 C 382.059 146.874, 389.484 141.604, 398.538 135.620 C 407.592 129.636, 415 124.333, 415 123.835 C 415 122.587, 411.916 117.985, 411.135 118.066 C 410.786 118.103, 401.955 123.970, 391.511 131.105 M 175.035 123.630 C 166.468 128.290, 146 144.137, 146 146.111 C 146 146.378, 152.637 146.440, 160.750 146.248 C 177.710 145.846, 174.149 146.983, 209 130.846 C 214.775 128.173, 221.300 125.116, 223.500 124.054 L 227.500 122.124 205.450 122.062 C 193.075 122.027, 182.983 121.586, 182.450 121.057 C 181.854 120.466, 179.092 121.424, 175.035 123.630 M 298.392 121.008 C 297.858 121.542, 287.252 122.081, 274.312 122.231 L 251.185 122.500 275.145 133.500 C 288.323 139.550, 300.615 144.950, 302.460 145.500 C 304.305 146.050, 312.436 146.364, 320.530 146.197 L 335.245 145.895 331.372 142.384 C 319.531 131.648, 300.249 119.151, 298.392 121.008 M 224.418 128.833 C 216.673 132.500, 205.423 137.692, 199.418 140.372 C 193.413 143.051, 188.185 145.526, 187.800 145.872 C 187.416 146.217, 210.737 146.500, 239.626 146.500 L 292.152 146.500 285.514 143.379 C 268.667 135.457, 238.998 121.960, 238.701 122.083 C 238.590 122.128, 232.163 125.166, 224.418 128.833 M 60.785 132.905 C 58.978 134.503, 56.619 137.540, 55.542 139.655 C 54.465 141.770, 52.762 144.717, 51.757 146.204 C 49.647 149.325, 48.941 148.632, 61.500 155.761 C 81.982 167.386, 91.537 173.161, 91.861 174.109 C 92.060 174.690, 90.813 174.438, 89.091 173.547 L 85.960 171.928 84.125 176.214 C 83.115 178.571, 81.969 181.512, 81.577 182.750 C 80.694 185.539, 79.617 185.551, 72.542 182.843 C 68.187 181.177, 67.055 180.325, 67.559 179.093 C 70.015 173.096, 71.123 168.725, 70.371 167.992 C 69.892 167.524, 68.320 166.850, 66.878 166.494 C 64.686 165.954, 64.157 166.239, 63.657 168.232 C 63.327 169.544, 62.367 172.270, 61.523 174.291 L 59.987 177.966 54.744 175.899 C 51.860 174.763, 49.363 173.696, 49.196 173.529 C 49.029 173.362, 50.041 170.397, 51.446 166.940 C 52.851 163.484, 54 160.552, 54 160.425 C 54 160.103, 47.868 158, 46.928 158 C 46.503 158, 45.613 159.688, 44.950 161.750 C 44.288 163.813, 42.647 168.147, 41.305 171.382 C 39.952 174.640, 39.245 177.645, 39.719 178.119 C 40.189 178.589, 43.708 180.076, 47.537 181.422 C 51.367 182.769, 61.004 186.374, 68.953 189.435 C 76.902 192.496, 83.877 194.997, 84.453 194.994 C 85.029 194.991, 87.261 190.153, 89.413 184.244 C 91.565 178.335, 93.928 172.612, 94.663 171.527 C 95.398 170.443, 96 169.009, 96 168.342 C 96 167.675, 92.086 164.922, 87.303 162.224 C 82.520 159.527, 78.451 156.854, 78.262 156.286 C 77.673 154.520, 83.050 148.999, 85.339 149.018 C 86.528 149.028, 89.975 150.417, 93 152.105 C 102.404 157.352, 102.583 157.371, 104.931 153.392 C 107.405 149.199, 107.430 149, 105.478 149 C 104.641 149, 100.376 147.200, 96 145 C 87.978 140.966, 84.635 140.164, 83.500 142 C 82.395 143.789, 81 143.056, 81 140.687 C 81 137.841, 76.748 133.628, 71.782 131.553 C 66.518 129.354, 64.523 129.599, 60.785 132.905 M 62.589 141.077 C 61.165 142.769, 60.009 144.681, 60.020 145.327 C 60.038 146.424, 70.243 153, 71.928 153 C 72.350 153, 73.484 151.253, 74.447 149.118 C 76.527 144.505, 75.588 141.873, 71.020 139.510 C 66.852 137.355, 65.511 137.604, 62.589 141.077 M 239.500 151 L 140.500 151.515 239.750 151.757 C 305.412 151.918, 339 151.662, 339 151 C 339 150.450, 338.887 150.109, 338.750 150.243 C 338.613 150.376, 293.950 150.717, 239.500 151 M 133.980 159.241 C 129.361 165.488, 124.245 173.564, 121.622 178.750 L 118.966 184 141.981 184 L 164.995 184 181.247 173.841 C 190.186 168.254, 199.921 162.196, 202.880 160.379 C 205.838 158.561, 208.478 156.855, 208.746 156.588 C 209.013 156.320, 192.835 156.085, 172.794 156.064 L 136.356 156.028 133.980 159.241 M 223.570 156.763 C 223.257 157.077, 223 163.333, 223 170.667 L 223 184 238.500 184 L 254 184 254 170.607 C 254 159, 253.777 157.128, 252.324 156.571 C 250.285 155.789, 224.371 155.962, 223.570 156.763 M 269 156.392 C 269 156.626, 274.738 160.290, 281.750 164.534 C 288.762 168.778, 297.875 174.346, 302 176.907 C 314.187 184.474, 312.104 184.080, 338.249 183.776 L 361.998 183.500 357.029 175 C 354.296 170.325, 350.340 164.250, 348.238 161.500 L 344.418 156.500 306.709 156.233 C 285.969 156.087, 269 156.158, 269 156.392 M 418 162.616 C 385.782 173.820, 387.766 172.927, 388.495 175.879 C 388.850 177.321, 389.480 178.848, 389.894 179.273 C 390.308 179.698, 399.561 176.871, 410.457 172.990 C 421.353 169.109, 430.434 166.101, 430.638 166.304 C 430.841 166.508, 425.044 169.980, 417.754 174.019 C 398.944 184.442, 392.998 187.994, 393.015 188.798 C 393.024 189.184, 393.442 190.150, 393.945 190.945 C 394.897 192.450, 402.733 191.596, 427.303 187.309 C 432.145 186.464, 436.317 185.984, 436.575 186.241 C 436.832 186.499, 428.146 189.760, 417.272 193.488 C 406.397 197.215, 397.385 200.358, 397.245 200.470 C 396.711 200.901, 399.232 207, 399.944 207 C 400.356 207, 408.525 204.262, 418.097 200.916 C 427.668 197.570, 437.750 194.088, 440.500 193.179 C 443.250 192.270, 445.658 191.437, 445.852 191.328 C 446.138 191.167, 443.121 181.017, 442.571 180.289 C 442.483 180.173, 435.456 181.135, 426.956 182.426 C 413.152 184.523, 409.709 184.790, 411.083 183.656 C 411.440 183.362, 417.363 180.024, 434 170.738 C 435.925 169.664, 437.626 168.670, 437.780 168.529 C 438.255 168.095, 434.622 156.993, 434.044 157.113 C 433.745 157.175, 426.525 159.652, 418 162.616 M 262 171.049 L 262 184 283.171 184 L 304.343 184 299.921 181.145 C 294.339 177.539, 278.719 167.986, 269.250 162.386 L 262 158.098 262 171.049 M 194.828 170.782 C 184.558 177.227, 175.821 182.838, 175.411 183.250 C 175.002 183.662, 183.742 184, 194.833 184 L 215 184 215 171.500 C 215 164.625, 214.662 159.015, 214.250 159.032 C 213.838 159.050, 205.098 164.338, 194.828 170.782 M 34.784 191.019 C 34.540 192.679, 34.827 194.407, 35.420 194.857 C 36.014 195.308, 43.250 197.609, 51.500 199.973 C 59.750 202.336, 67.400 204.546, 68.500 204.884 C 69.600 205.223, 61.950 205.725, 51.500 206 L 32.500 206.500 32.202 209.544 L 31.904 212.588 48.952 217.985 C 58.328 220.953, 66 223.633, 66.001 223.941 C 66.001 224.248, 57.788 224.500, 47.751 224.500 L 29.500 224.500 29.201 228.067 L 28.901 231.633 53.701 231.202 C 67.340 230.964, 78.561 230.709, 78.636 230.635 C 78.710 230.561, 79.076 228.654, 79.449 226.397 C 80.239 221.607, 81.403 222.300, 62.500 216.306 L 50.500 212.500 66.250 212.225 C 78.667 212.007, 82 211.664, 82 210.600 C 82 209.857, 82.278 207.858, 82.618 206.158 C 83.140 203.549, 82.866 202.910, 80.868 202.074 C 77.058 200.479, 37.586 188, 36.352 188 C 35.733 188, 35.028 189.359, 34.784 191.019 M 142.319 189.749 C 155.419 189.907, 176.569 189.907, 189.319 189.749 C 202.068 189.591, 191.350 189.461, 165.500 189.462 C 139.650 189.462, 129.218 189.591, 142.319 189.749 M 226.191 189.747 C 233.171 189.918, 244.871 189.919, 252.191 189.748 C 259.511 189.577, 253.800 189.436, 239.500 189.436 C 225.200 189.435, 219.211 189.575, 226.191 189.747 M 315 189.745 C 363.164 190.014, 364 190.053, 364 192.009 C 364 193.967, 363.251 194.001, 318.750 194.032 C 278.103 194.060, 273.703 194.218, 275.500 195.579 C 276.600 196.413, 286.171 202.024, 296.768 208.047 L 316.036 219 344.564 219 L 373.091 219 372.412 215.250 C 372.038 213.188, 370.105 206.550, 368.116 200.500 L 364.500 189.500 315.250 189.486 L 266 189.471 315 189.745 M 113.547 197.250 C 112.804 199.037, 111.059 204.662, 109.668 209.750 L 107.140 219 134.965 219 L 162.791 219 179.146 209.658 C 188.140 204.519, 197.750 198.903, 200.500 197.177 L 205.500 194.038 160.199 194.019 L 114.898 194 113.547 197.250 M 223.433 195.314 C 223.156 196.037, 223.057 201.550, 223.214 207.564 L 223.500 218.500 238.500 218.500 L 253.500 218.500 253.707 207.032 C 253.853 198.969, 253.556 195.337, 252.707 194.798 C 252.043 194.376, 245.298 194.024, 237.719 194.015 C 227.245 194.004, 223.816 194.315, 223.433 195.314 M 210.500 196.983 C 208.850 197.983, 199.648 203.346, 190.052 208.900 L 172.603 219 193.302 219 L 214 219 214 207 C 214 200.400, 213.887 195.037, 213.750 195.083 C 213.613 195.128, 212.150 195.984, 210.500 196.983 M 263 206.893 L 263 219 284 219 C 295.550 219, 305 218.813, 305 218.585 C 305 218.109, 267.152 196.379, 264.651 195.419 C 263.172 194.852, 263 196.051, 263 206.893 M 435 203.629 C 430.325 204.376, 420.425 206.003, 413 207.244 L 399.500 209.500 399.845 213 C 400.035 214.925, 400.268 216.583, 400.363 216.684 C 400.699 217.044, 448.013 209.320, 448.509 208.825 C 448.787 208.547, 448.730 206.898, 448.382 205.160 C 447.659 201.545, 447.874 201.570, 435 203.629 M 444.130 212.712 C 441.966 213.131, 441.803 213.556, 442.257 217.585 C 442.530 220.013, 442.478 222, 442.141 222 C 440.195 222, 406.955 225.129, 404.238 225.568 C 401.320 226.039, 401 226.415, 401.206 229.124 C 401.333 230.789, 401.820 232.389, 402.288 232.678 C 402.755 232.967, 411.607 232.415, 421.957 231.452 C 432.308 230.489, 441.502 229.979, 442.388 230.319 C 443.508 230.748, 444 232.189, 444 235.036 L 444 239.135 447.750 238.766 L 451.500 238.397 451.153 231.448 C 450.215 212.688, 449.811 211.611, 444.130 212.712 M 107 224.184 C 107 224.633, 167.075 225, 240.500 225 C 313.925 225, 374 224.648, 374 224.219 C 374 223.789, 313.925 223.422, 240.500 223.403 C 167.075 223.384, 107 223.736, 107 224.184 M 105.625 233.125 C 103.856 241.972, 105.867 266.773, 109.530 281.274 C 114.031 299.090, 123.807 318.859, 135.355 333.500 C 144.653 345.288, 170.809 367.737, 172.346 365.249 C 172.607 364.827, 173.551 361.561, 174.445 357.991 C 175.338 354.421, 176.478 350.600, 176.978 349.500 C 177.479 348.400, 182.224 332.650, 187.522 314.500 C 192.821 296.350, 197.764 279.700, 198.507 277.500 C 199.249 275.300, 202.171 265.625, 205 256 C 207.829 246.375, 210.561 237.466, 211.072 236.203 C 211.582 234.940, 212 233.027, 212 231.953 C 212 230.040, 210.909 230, 159.125 230 L 106.250 230 105.625 233.125 M 230.190 230.523 C 230.477 230.811, 232.878 232.586, 235.525 234.468 C 240.796 238.215, 241.001 238.189, 246.962 233.009 L 250.424 230 240.046 230 C 234.337 230, 229.902 230.235, 230.190 230.523 M 267.329 230.750 C 267.574 231.162, 271.474 240.950, 275.994 252.500 C 280.514 264.050, 286.683 279.800, 289.704 287.500 C 292.724 295.200, 297.648 307.800, 300.646 315.500 C 306.556 330.678, 311.738 343.436, 313.006 345.930 C 313.446 346.793, 314.378 349.435, 315.079 351.801 C 317.464 359.849, 318.094 360.071, 324.158 355.007 C 334.234 346.593, 338.275 342.487, 344.977 333.853 C 362.842 310.838, 372.536 286.032, 375.152 256.636 C 375.812 249.221, 375.999 240.560, 375.581 236.750 L 374.841 230 320.861 230 C 291.173 230, 267.083 230.338, 267.329 230.750 M 221.566 243.094 C 220.155 249.113, 219 254.308, 219 254.639 C 219 254.970, 221.137 253.500, 223.750 251.372 C 229.041 247.063, 230.377 245.990, 233.999 243.143 L 236.497 241.179 233.544 238.856 C 231.919 237.578, 229.137 235.547, 227.361 234.341 L 224.132 232.150 221.566 243.094 M 250.500 236.180 C 247.750 238.381, 245.378 240.508, 245.228 240.906 C 245.079 241.304, 247.104 243.146, 249.728 244.999 C 252.353 246.851, 255.978 249.635, 257.785 251.184 C 259.591 252.733, 261.452 254, 261.919 254 C 262.387 254, 261.517 250.063, 259.986 245.250 C 255.338 230.638, 256.288 231.546, 250.500 236.180 M 45.159 241.076 C 33.142 242.635, 27.249 248.093, 28.504 256.500 C 29.268 261.617, 31.207 264.538, 35.213 266.610 C 37.902 268.001, 40.628 268.178, 52.454 267.728 C 66.847 267.182, 71.364 266.178, 76.492 262.384 C 78.960 260.558, 79.412 259.453, 79.782 254.336 C 80.165 249.036, 79.927 248.067, 77.541 245.231 C 76.073 243.486, 73.213 241.598, 71.186 241.035 C 66.946 239.857, 54.401 239.877, 45.159 241.076 M 402.714 242.681 C 402.446 243.132, 401.906 248.675, 401.514 255 C 401.123 261.325, 400.179 269.200, 399.416 272.500 C 398.654 275.800, 398.023 280.232, 398.015 282.349 C 397.986 289.727, 405.435 293.748, 426.082 297.499 C 440.554 300.128, 444.709 297.471, 447.692 283.677 C 449.653 274.608, 449.720 274.715, 441.060 273.128 C 438.002 272.568, 431.225 271.160, 426 270 C 420.775 268.840, 413.800 267.369, 410.500 266.732 C 407.200 266.095, 405.449 265.422, 406.609 265.236 C 408.455 264.940, 408.792 264.016, 409.311 257.830 C 409.637 253.943, 410.038 250.632, 410.202 250.473 C 410.366 250.313, 413.596 250.433, 417.380 250.738 L 424.260 251.295 423.617 258.208 L 422.975 265.122 426.737 264.811 L 430.500 264.500 430.799 258.204 L 431.098 251.907 437.298 252.204 L 443.497 252.500 443.159 259.750 L 442.820 267 446.365 267 C 450.452 267, 450.734 266.187, 451.222 253.013 L 451.500 245.527 433.500 244.344 C 423.600 243.694, 412.733 242.870, 409.351 242.512 C 405.970 242.155, 402.983 242.231, 402.714 242.681 M 232.230 250.556 C 227.737 254.151, 223.825 257.474, 223.536 257.942 C 223.247 258.410, 231.108 258.832, 241.005 258.879 C 250.902 258.927, 258.993 258.636, 258.984 258.233 C 258.970 257.622, 254.444 254.140, 242.119 245.260 C 240.640 244.194, 239.252 244.938, 232.230 250.556 M 46.500 248.657 C 39.566 249.482, 36.223 250.974, 35.582 253.529 C 33.956 260.008, 38.592 261.536, 55.633 260.136 C 68.843 259.050, 72.361 257.702, 72.836 253.542 C 73.366 248.894, 71.110 247.978, 59.559 248.150 C 54.026 248.232, 48.150 248.460, 46.500 248.657 M 212.729 250.604 C 212.328 251.005, 212 252.023, 212 252.867 C 212 253.992, 212.296 254.104, 213.113 253.288 C 213.724 252.676, 214.053 251.657, 213.842 251.025 C 213.631 250.393, 213.130 250.203, 212.729 250.604 M 348.238 252.162 C 346.029 254.371, 346.735 261.786, 349.500 265.411 C 352.014 268.707, 352.862 273, 351 273 C 350.450 273, 350 271.875, 350 270.500 C 350 268.623, 349.474 268, 347.889 268 C 345.991 268, 345.848 268.379, 346.478 271.750 C 346.864 273.813, 347.644 276.063, 348.212 276.750 C 350.972 280.090, 356 276.201, 356 270.728 C 356 267.547, 353.919 263.008, 351.566 261.055 C 349.899 259.671, 349.403 256, 350.883 256 C 351.369 256, 352.002 256.900, 352.290 258 C 352.918 260.403, 354.551 260.613, 355.400 258.400 C 356.999 254.232, 351.210 249.190, 348.238 252.162 M 118 262.739 C 118 274.752, 118.694 276.619, 123.516 277.565 C 125.723 277.998, 127.264 277.580, 129.266 276.006 C 131.947 273.897, 132 273.642, 132 262.927 L 132 252 129.500 252 L 127 252 127 262.500 C 127 272.252, 126.861 273, 125.045 273 C 122.614 273, 121.839 269.293, 122.225 259.500 C 122.484 252.905, 122.370 252.482, 120.250 252.180 C 118.035 251.866, 118 252.030, 118 262.739 M 133.393 253.582 C 133.727 254.452, 134 255.352, 134 255.582 C 134 255.812, 134.900 256, 136 256 C 137.873 256, 138 256.667, 138 266.500 L 138 277 140.500 277 L 143 277 143 266.500 C 143 256.667, 143.127 256, 145 256 C 146.333 256, 147 255.333, 147 254 C 147 252.188, 146.333 252, 139.893 252 C 133.823 252, 132.875 252.231, 133.393 253.582 M 148 253.930 C 148 255.166, 148.804 255.976, 150.235 256.180 C 151.654 256.383, 152.504 257.230, 152.563 258.500 C 152.615 259.600, 152.735 264.212, 152.829 268.750 C 152.984 276.226, 153.184 277, 154.965 277 C 156.772 277, 156.953 276.176, 157.215 266.750 C 157.487 256.982, 157.606 256.485, 159.750 256.180 C 161.196 255.975, 162 255.171, 162 253.930 C 162 252.207, 161.249 252, 155 252 C 148.751 252, 148 252.207, 148 253.930 M 164.997 252.250 C 164.987 253.085, 160.849 273.814, 160.405 275.250 C 159.993 276.586, 160.442 277, 162.308 277 C 164.221 277, 164.880 276.351, 165.350 274 C 165.783 271.837, 166.522 271, 168 271 C 169.478 271, 170.217 271.837, 170.650 274 C 171.123 276.367, 171.774 277, 173.733 277 C 175.945 277, 176.140 276.699, 175.519 274.250 C 175.136 272.738, 174.190 268.125, 173.418 264 C 171.091 251.574, 171.285 252, 167.981 252 C 166.341 252, 164.999 252.113, 164.997 252.250 M 177.848 259.750 C 177.710 266.821, 177.746 274.362, 177.928 276.250 C 177.968 276.663, 178.900 277, 180 277 C 181.758 277, 182 276.333, 182 271.500 C 182 266.027, 182.403 265.450, 185.418 266.607 C 186.562 267.046, 187 268.568, 187 272.107 C 187 276.729, 187.146 277, 189.640 277 C 192.271 277, 192.277 276.981, 191.555 271.250 C 191.157 268.087, 190.864 264.600, 190.904 263.500 C 190.944 262.400, 191.026 260.024, 191.086 258.221 C 191.250 253.342, 189.587 252, 183.378 252 L 178 252 177.848 259.750 M 291 264.443 C 291 276.333, 291.106 277, 293 277 C 294.724 277, 295 276.333, 295 272.161 C 295 267.997, 295.342 267.165, 297.446 266.207 C 300.301 264.906, 301.804 259.198, 300.371 255.098 C 299.615 252.935, 298.755 252.449, 295.231 252.193 L 291 251.885 291 264.443 M 302 264.500 C 302 274.665, 302.267 277, 303.428 277 C 304.410 277, 305.072 275.274, 305.546 271.476 C 306.114 266.929, 306.481 266.154, 307.618 267.098 C 308.409 267.754, 309 270.118, 309 272.622 C 309 276.939, 309.047 277, 312.421 277 C 315.408 277, 315.925 276.620, 316.500 274 C 316.862 272.350, 317.798 271, 318.579 271 C 319.491 271, 320 272.075, 320 274 C 320 276.385, 320.432 277, 322.108 277 C 323.789 277, 324.107 276.543, 323.675 274.750 C 323.376 273.512, 322.583 267.887, 321.911 262.250 C 320.770 252.669, 320.545 252, 318.454 252 C 316.368 252, 316.099 252.779, 314.474 263.532 C 313.515 269.875, 312.540 274.873, 312.307 274.640 C 312.074 274.408, 311.875 269.784, 311.863 264.367 C 311.852 258.949, 311.373 253.950, 310.799 253.258 C 310.225 252.566, 308.010 252, 305.878 252 L 302 252 302 264.500 M 325 264.443 L 325 277 328.378 277 C 330.235 277, 332.321 276.318, 333.012 275.485 C 334.621 273.547, 335.416 261.709, 334.288 256.500 C 333.459 252.677, 333.235 252.486, 329.210 252.193 L 325 251.885 325 264.443 M 336.807 264.502 L 336.500 277.004 340.750 277.002 C 344.616 277, 345 276.774, 345 274.500 C 345 272.500, 344.500 272, 342.500 272 C 340.389 272, 340 271.533, 340 269 C 340 266.651, 340.441 266, 342.031 266 C 343.149 266, 344.339 265.280, 344.677 264.399 C 345.390 262.542, 343.332 260.935, 341.261 261.730 C 340.196 262.139, 339.923 261.552, 340.170 259.388 C 340.411 257.280, 341.108 256.414, 342.750 256.180 C 344.196 255.975, 345 255.171, 345 253.930 C 345 252.350, 344.286 252, 341.057 252 L 337.114 252 336.807 264.502 M 357.133 264.500 C 357.119 276.211, 357.241 277, 359.059 277 C 360.745 277, 361 276.277, 361 271.500 C 361 267.278, 361.348 266, 362.500 266 C 363.652 266, 364 267.278, 364 271.500 C 364 276.333, 364.242 277, 366 277 C 367.893 277, 368 276.333, 368 264.500 C 368 252.667, 367.893 252, 366 252 C 364.296 252, 364 252.667, 364 256.500 C 364 259.833, 363.611 261, 362.500 261 C 361.389 261, 361 259.833, 361 256.500 C 361 252.724, 360.690 252, 359.074 252 C 357.276 252, 357.147 252.832, 357.133 264.500 M 182 259 C 182 261.683, 182.327 262.093, 184.250 261.820 C 185.898 261.585, 186.500 260.831, 186.500 259 C 186.500 257.169, 185.898 256.415, 184.250 256.180 C 182.327 255.907, 182 256.317, 182 259 M 295 259 C 295 260.650, 295.450 262, 296 262 C 296.550 262, 297 260.650, 297 259 C 297 257.350, 296.550 256, 296 256 C 295.450 256, 295 257.350, 295 259 M 305.285 259.044 C 305.115 261.485, 305.430 262.064, 306.785 261.803 C 308.945 261.387, 309.128 256.647, 307 256.241 C 305.962 256.042, 305.434 256.906, 305.285 259.044 M 328 264.500 C 328 271.389, 328.284 273, 329.500 273 C 330.716 273, 331 271.389, 331 264.500 C 331 257.611, 330.716 256, 329.500 256 C 328.284 256, 328 257.611, 328 264.500 M 167 264 C 167 265.650, 167.450 267, 168 267 C 168.550 267, 169 265.650, 169 264 C 169 262.350, 168.550 261, 168 261 C 167.450 261, 167 262.350, 167 264 M 317.751 263.524 C 317.485 264.912, 317.658 266.289, 318.134 266.583 C 318.610 266.877, 319 265.741, 319 264.059 C 319 260.347, 318.407 260.092, 317.751 263.524 M 216.652 265.166 C 215.310 270.179, 214.370 270, 242.003 270 L 268.006 270 266.680 266.750 L 265.355 263.500 241.316 263.166 L 217.277 262.833 216.652 265.166 M 208.178 267.275 C 207.451 268.157, 207.004 270.144, 207.185 271.690 L 207.514 274.500 208.820 272.198 C 209.538 270.933, 209.985 268.946, 209.813 267.783 C 209.531 265.882, 209.367 265.831, 208.178 267.275 M 274 268.686 C 274 270.374, 274.675 272.315, 275.500 273 C 276.762 274.048, 276.995 273.869, 276.968 271.872 C 276.951 270.568, 276.276 268.626, 275.468 267.559 C 274.075 265.716, 274 265.774, 274 268.686 M 40.378 274.437 C 34.035 277.198, 32.661 282.674, 35.395 294.296 C 36.145 297.484, 36.972 300.305, 37.232 300.565 C 37.492 300.826, 46.209 299.211, 56.603 296.978 C 88.705 290.080, 85.292 291.212, 84.590 287.699 C 84.254 286.020, 83.799 284.466, 83.579 284.246 C 83.152 283.818, 66.976 286.688, 64.538 287.624 C 63.543 288.006, 62.887 287.285, 62.461 285.341 C 60.300 275.489, 57.675 272.987, 49.561 273.039 C 46.228 273.061, 42.095 273.690, 40.378 274.437 M 405.477 277.272 C 405.114 279.207, 405.274 281.644, 405.833 282.688 C 407.029 284.923, 414.701 287.513, 426.008 289.501 C 435.316 291.138, 438.509 290.421, 440.058 286.347 C 441.675 282.094, 440.869 280.622, 436.491 279.831 C 434.296 279.435, 428.225 278.153, 423 276.983 C 417.775 275.812, 411.843 274.607, 409.818 274.305 C 406.257 273.773, 406.115 273.870, 405.477 277.272 M 232.490 280.181 C 242.472 285.256, 242.483 285.259, 245.490 283.527 C 247.146 282.574, 251.088 280.445, 254.250 278.796 C 257.413 277.147, 260 275.618, 260 275.399 C 260 275.179, 251.563 275.023, 241.250 275.051 L 222.500 275.102 232.490 280.181 M 212.471 283.750 C 211.555 288.012, 210.149 294.137, 209.347 297.361 C 208.544 300.584, 208.064 303.398, 208.280 303.613 C 208.495 303.829, 215.046 300.459, 222.837 296.126 C 232.972 290.487, 236.645 287.972, 235.751 287.284 C 235.063 286.755, 230.675 284.398, 226 282.045 C 221.325 279.693, 217.072 277.370, 216.550 276.884 C 214.683 275.147, 214.114 276.104, 212.471 283.750 M 258.269 281.769 C 252.642 284.921, 248.029 287.729, 248.019 288.008 C 248.008 288.288, 254.750 292.035, 263 296.335 C 271.250 300.635, 278 303.810, 278 303.391 C 278 301.709, 269.625 276.001, 269.082 276.019 C 268.762 276.029, 263.896 278.616, 258.269 281.769 M 45.500 280.724 C 42.008 281.582, 41 283.128, 41 287.622 C 41 291.755, 41.154 291.995, 43.750 291.904 C 45.263 291.851, 48.750 291.280, 51.500 290.636 C 55.999 289.581, 56.467 289.215, 56.168 286.982 C 55.367 280.981, 52.144 279.090, 45.500 280.724 M 201.165 291.647 C 198.483 295.764, 199.479 298.152, 202.684 295.290 C 204.142 293.988, 204.526 292.759, 204.094 290.782 L 203.500 288.064 201.165 291.647 M 281 290.842 C 281 292.874, 281.663 294.285, 282.939 294.968 C 286.749 297.007, 286.442 292.271, 282.555 289.045 C 281.206 287.926, 281 288.163, 281 290.842 M 226.500 299.476 L 211.500 307.926 241.500 308.213 C 258 308.371, 272.038 308.271, 272.696 307.991 C 273.753 307.540, 244.023 290.980, 242.216 291.013 C 241.822 291.020, 234.750 294.828, 226.500 299.476 M 286.469 304.097 C 286.036 305.461, 286.369 306.797, 287.397 307.826 C 288.868 309.296, 289 309.168, 289 306.273 C 289 302.487, 287.413 301.122, 286.469 304.097 M 197.432 306.250 C 197.663 307.488, 197.885 308.924, 197.926 309.441 C 197.967 309.959, 198.625 309.528, 199.389 308.483 C 200.970 306.321, 200.458 304, 198.399 304 C 197.504 304, 197.161 304.797, 197.432 306.250 M 63.270 308.449 C 59.557 310.101, 56.009 315.303, 56.004 319.101 C 55.992 327.211, 61.812 332.619, 69.607 331.741 C 74.709 331.166, 77.661 328.953, 79.673 324.197 C 83.864 314.294, 73.181 304.038, 63.270 308.449 M 293.479 312.750 C 293.652 314.860, 295.987 319.347, 296.594 318.739 C 297.028 318.305, 294.252 311, 293.654 311 C 293.478 311, 293.399 311.788, 293.479 312.750 M 205.662 314.438 C 205.302 315.377, 205.871 315.984, 207.305 316.188 C 208.512 316.359, 225.794 316.377, 245.709 316.226 C 277.147 315.988, 281.844 315.757, 281.352 314.476 C 280.513 312.288, 206.502 312.250, 205.662 314.438 M 404.763 314.565 C 397.129 318.707, 397.254 331.494, 404.967 335.483 C 412.670 339.466, 422.120 335.168, 423.490 327.060 C 425.192 316.987, 414.027 309.539, 404.763 314.565 M 191.718 316.680 C 191.027 320.278, 191.518 320.770, 193.012 317.978 C 193.764 316.573, 193.840 315.440, 193.223 314.823 C 192.606 314.206, 192.065 314.873, 191.718 316.680 M 287.162 317 C 288.569 321.340, 289 321.893, 289 319.358 C 289 318.271, 288.331 316.509, 287.514 315.441 C 286.163 313.677, 286.131 313.820, 287.162 317 M 198.651 318.468 C 198.341 319.275, 198.518 320.202, 199.044 320.527 C 199.570 320.852, 200 320.191, 200 319.059 C 200 316.644, 199.444 316.401, 198.651 318.468 M 214.111 321.444 C 214.356 321.689, 221.484 324.869, 229.952 328.512 L 245.349 335.135 257.424 329.445 C 264.066 326.315, 270.625 323.153, 272 322.417 C 274.136 321.275, 270.071 321.074, 244.083 321.040 C 227.354 321.018, 213.867 321.200, 214.111 321.444 M 272 327.559 C 255.392 335.501, 251.975 337.381, 252.782 338.132 C 253.177 338.501, 258 340.669, 263.500 342.951 C 269 345.233, 274.400 347.513, 275.500 348.019 C 286.162 352.919, 293.556 355.726, 293.823 354.975 C 294.114 354.154, 284.239 321.958, 283.718 322.030 C 283.598 322.047, 278.325 324.535, 272 327.559 M 203.537 324.146 C 203.089 325.412, 196 356.939, 196 357.667 C 196 358.709, 199.745 357.136, 216.456 349.074 C 226.632 344.165, 235.867 339.859, 236.979 339.507 C 238.091 339.154, 239 338.535, 239 338.132 C 239 337.728, 231.912 334.399, 223.250 330.732 C 203.145 322.222, 204.105 322.543, 203.537 324.146 M 293 328.084 C 293 333.078, 293.260 333.722, 295.904 335.284 C 299.614 337.476, 300.650 337.445, 301.258 335.123 C 301.562 333.958, 300.442 331.588, 298.304 328.873 C 292.984 322.119, 293 322.121, 293 328.084 M 190.186 330.538 C 187.562 334.260, 187.205 335.410, 188.013 337.534 L 188.979 340.075 191.990 337.850 C 194.516 335.982, 195 334.940, 195 331.371 C 195 329.032, 194.623 326.885, 194.163 326.601 C 193.703 326.316, 191.913 328.088, 190.186 330.538 M 81 339.512 C 67.706 348.919, 64.597 352.235, 65.383 356.166 C 66.719 362.847, 72.563 367.045, 77.925 365.176 C 80.604 364.242, 92.118 356.691, 100.730 350.220 C 103.397 348.216, 103.783 347.463, 102.945 345.897 C 101.615 343.413, 100.341 343.504, 96.594 346.351 C 88.802 352.272, 76.628 360, 75.094 360 C 72.954 360, 71 358.085, 71 355.987 C 71 353.807, 74.681 350.578, 86.235 342.625 C 95.133 336.499, 95.864 335.755, 94.744 333.962 C 94.070 332.883, 93.065 332.018, 92.509 332.041 C 91.954 332.063, 86.775 335.425, 81 339.512 M 381.400 340.400 C 374.664 347.136, 377.363 353.360, 390.832 362.153 C 399.416 367.757, 404.115 369.360, 407.471 367.831 C 410.471 366.465, 412.387 362.805, 411.776 359.610 C 411.380 357.538, 411.656 357.114, 413.286 357.288 C 418.636 357.857, 414.384 353.109, 402.829 345.607 C 400.159 343.874, 400.157 343.874, 397.573 347.678 L 394.988 351.482 397.200 353.151 C 399.183 354.647, 399.528 354.660, 400.539 353.277 C 401.549 351.896, 401.941 351.915, 404.294 353.457 C 405.740 354.404, 407.189 356.022, 407.516 357.052 C 408.221 359.271, 406.451 363, 404.692 363 C 402.733 363, 391.128 355.857, 386.639 351.888 C 382.782 348.478, 382.623 348.122, 383.805 345.529 C 384.971 342.970, 385.355 342.826, 389.405 343.433 C 392.896 343.957, 393.876 343.765, 394.377 342.461 C 395.303 340.047, 395.280 340.015, 391.532 338.449 C 386.516 336.353, 385.192 336.608, 381.400 340.400 M 233.500 346.096 C 226.900 349.304, 215.313 354.874, 207.750 358.475 C 200.188 362.075, 194 365.539, 194 366.172 C 194 367.029, 201.844 367.154, 224.750 366.663 C 241.662 366.300, 264.837 366.003, 276.250 366.002 C 295.394 366, 297 365.864, 297 364.239 C 297 362.959, 294.203 361.277, 286.750 358.075 C 281.113 355.654, 274.250 352.669, 271.500 351.443 C 268.750 350.217, 262 347.315, 256.500 344.994 C 251 342.673, 246.275 340.659, 246 340.518 C 245.725 340.378, 240.100 342.887, 233.500 346.096 M 295.387 343.476 C 296.485 346.985, 298 347.275, 298 343.976 C 298 342.928, 297.175 341.629, 296.166 341.089 C 294.473 340.183, 294.413 340.367, 295.387 343.476 M 192.551 343.339 C 191.101 344.399, 190.943 345.075, 191.793 346.589 C 192.841 348.456, 192.881 348.454, 193.529 346.500 C 195.249 341.310, 195.263 341.356, 192.551 343.339 M 301.211 349.665 C 299.926 353.851, 300.318 355, 303.033 355 C 304.174 355, 305.613 353.715, 306.592 351.822 C 308.137 348.834, 308.128 348.566, 306.426 347.322 C 303.559 345.226, 302.415 345.740, 301.211 349.665 M 184.223 349.557 C 181.484 351.475, 181.496 351.795, 184.429 355.382 C 186.555 357.981, 186.980 358.127, 188.775 356.870 C 190.675 355.539, 190.692 355.307, 189.147 351.738 C 187.304 347.479, 187.234 347.448, 184.223 349.557 M 372.040 352.925 C 370.978 354.910, 372.290 356.415, 385.500 368.370 C 387.700 370.361, 389.150 371.993, 388.722 371.995 C 388.295 371.998, 383.020 369.750, 377 367 C 370.980 364.250, 365.476 362, 364.768 362 C 364.060 362, 362.937 362.871, 362.272 363.936 C 361.184 365.678, 362.321 367.056, 373.615 377.686 C 380.518 384.184, 386.733 389.632, 387.425 389.793 C 388.117 389.954, 389.303 389.340, 390.059 388.428 C 391.263 386.979, 391.063 386.456, 388.468 384.259 C 384.440 380.850, 373 369.919, 373 369.480 C 373 369.184, 386.857 375.407, 394.785 379.264 C 396.681 380.186, 397.423 380.021, 399.150 378.294 L 401.231 376.214 393.382 368.857 C 389.066 364.811, 383.011 359.137, 379.927 356.250 C 376.842 353.363, 374.038 351, 373.695 351 C 373.351 351, 372.607 351.866, 372.040 352.925 M 100.480 361.300 C 96.069 365.260, 89.994 370.616, 86.980 373.201 L 81.500 377.903 83.500 379.917 L 85.500 381.932 91.311 376.829 L 97.123 371.727 100.359 374.863 C 105.164 379.520, 109.750 379.250, 115 374 C 119.169 369.831, 119.853 367.144, 117.715 363.337 C 116.132 360.520, 110.160 353.986, 109.226 354.050 C 108.827 354.077, 104.891 357.339, 100.480 361.300 M 309.590 355.627 C 309.219 356.594, 309.491 357.695, 310.216 358.155 C 312.475 359.588, 313.103 359.063, 311.900 356.750 C 310.303 353.681, 310.331 353.695, 309.590 355.627 M 178.771 359.418 C 178.239 362.199, 178.660 362.501, 181 361.021 C 182.322 360.185, 182.308 359.881, 180.882 358.454 C 179.392 356.963, 179.226 357.039, 178.771 359.418 M 105.119 364.630 L 100.888 368.252 103.118 370.626 C 105.851 373.535, 106.990 373.582, 110.365 370.927 C 113.436 368.512, 113.779 365.015, 111.176 362.659 C 109.461 361.107, 109.096 361.226, 105.119 364.630 M 304.161 364.547 C 302.249 368.741, 302.799 369.175, 306.992 366.780 C 311.584 364.158, 311.876 363.468, 308.750 362.630 C 305.469 361.751, 305.426 361.769, 304.161 364.547 M 180.688 366.283 C 176.992 368.165, 176.938 368.268, 178.918 369.655 C 180.041 370.442, 182.494 371.726, 184.370 372.510 C 187.701 373.902, 187.791 373.876, 188.267 371.381 C 188.598 369.655, 188.066 368.101, 186.628 366.584 L 184.500 364.341 180.688 366.283 M 354.139 371.026 L 349.777 374.970 351.486 381.943 C 352.426 385.778, 353.037 389.390, 352.843 389.970 C 352.650 390.549, 350.555 388.543, 348.187 385.512 C 343.538 379.558, 342.903 379.207, 340.980 381.524 C 339.498 383.310, 339.864 383.886, 353.359 400.995 C 362.193 412.196, 362.223 412.221, 364.201 410.243 C 366.179 408.265, 366.175 408.247, 362.592 403.553 C 360.617 400.965, 359 397.930, 359 396.808 C 359 394.932, 359.178 394.885, 361.250 396.220 C 362.488 397.017, 365.645 398.916, 368.266 400.439 C 372.862 403.110, 373.125 403.148, 375.615 401.517 L 378.197 399.825 369.849 394.905 C 365.257 392.199, 360.714 389.734, 359.752 389.426 C 358.791 389.118, 357.789 387.884, 357.525 386.683 C 356.269 380.963, 354.918 371.749, 355.282 371.385 C 355.506 371.161, 361.354 376.788, 368.279 383.890 C 380.461 396.384, 380.924 396.741, 382.589 394.901 C 384.220 393.100, 384.210 392.883, 382.405 390.758 C 378.734 386.438, 359.592 367, 359.049 367.041 C 358.747 367.064, 356.537 368.857, 354.139 371.026 M 78.195 369.818 C 75.957 371.540, 75.944 371.640, 77.752 373.275 C 79.432 374.796, 79.824 374.811, 81.788 373.436 C 83.637 372.141, 83.779 371.620, 82.741 369.956 C 81.261 367.587, 81.101 367.582, 78.195 369.818 M 203.511 371.948 C 194.369 372.407, 192.469 372.777, 192.207 374.150 C 191.966 375.410, 193.734 376.399, 199.696 378.339 C 214.380 383.117, 223.231 384.407, 241 384.361 C 262.320 384.305, 277.126 381.199, 295.223 372.985 L 299.500 371.044 257 371.220 C 233.625 371.316, 209.555 371.644, 203.511 371.948 M 125.500 375.406 C 122.030 376.941, 117.202 382.013, 111.215 390.413 C 106.116 397.566, 105.579 402.316, 109.457 405.959 C 111.356 407.743, 112.610 408.128, 114.981 407.654 C 117.733 407.103, 117.947 407.230, 117.060 408.889 C 116.010 410.850, 116.557 412, 118.539 412 C 119.629 412, 131 398.712, 131 397.438 C 131 396.510, 125.551 392.065, 124.372 392.032 C 122.052 391.967, 120.800 394.707, 122.157 396.879 C 123.256 398.639, 123.104 399.260, 121.040 401.458 C 118.137 404.548, 114.475 404.757, 112.956 401.918 C 111.709 399.587, 113.871 395.632, 121.266 386.723 C 125.831 381.224, 128.296 379.642, 130.973 380.492 C 133.457 381.280, 133.970 383.842, 132.318 387.212 C 131.127 389.640, 131.191 390.032, 132.928 390.962 C 135.636 392.411, 135.764 392.357, 137.474 389.050 C 140.408 383.377, 138.684 378.956, 132.240 375.624 C 128.566 373.724, 129.251 373.746, 125.500 375.406 M 92.199 384.704 C 90.267 386.328, 90.204 386.688, 91.544 388.459 C 93.008 390.394, 93.053 390.391, 95.231 388.213 C 97.223 386.221, 97.287 385.858, 95.886 384.458 C 94.486 383.057, 94.129 383.081, 92.199 384.704 M 331.750 387.758 C 330.238 388.696, 329 389.994, 329 390.642 C 329 391.632, 341.679 424.013, 342.317 424.650 C 342.434 424.767, 343.585 424.067, 344.875 423.094 C 347.136 421.389, 347.162 421.215, 345.610 418.212 C 343.368 413.877, 343.573 412.683, 346.899 410.719 C 349.785 409.014, 349.812 409.021, 352.745 412.362 C 355.564 415.573, 355.810 415.655, 358.442 414.277 L 361.192 412.835 347.881 399.418 C 340.561 392.038, 334.555 386.012, 334.535 386.027 C 334.516 386.041, 333.262 386.820, 331.750 387.758 M 140.691 389.411 C 135.334 394.375, 127 409.563, 127 414.360 C 127 417.564, 129.775 421.008, 133.668 422.635 C 136.669 423.889, 137.476 423.868, 140.441 422.461 C 143.789 420.872, 148.651 414.525, 152.899 406.199 C 154.077 403.889, 155.214 402, 155.427 402 C 155.897 402, 155.778 402.534, 151.989 417.314 C 150.323 423.811, 149.194 429.504, 149.478 429.965 C 149.763 430.426, 151.327 431.267, 152.952 431.834 C 155.879 432.854, 155.981 432.762, 163.141 422.682 C 178.968 400.401, 178.570 400.880, 177.407 405.513 C 176.867 407.666, 177.222 408.182, 179.888 409.111 C 181.600 409.708, 183 410.323, 183 410.479 C 183 410.635, 180.753 417.204, 178.008 425.077 C 174.240 435.880, 173.320 439.585, 174.258 440.180 C 177.594 442.299, 178.557 440.922, 182.945 427.750 C 185.373 420.462, 187.764 413.962, 188.257 413.304 C 188.888 412.464, 189.901 412.392, 191.661 413.061 C 194.592 414.176, 195.569 413.755, 196.270 411.077 C 196.705 409.413, 195.646 408.721, 189.140 406.415 C 184.938 404.925, 179.508 402.863, 177.072 401.831 C 174.637 400.799, 172.314 400.303, 171.910 400.728 C 171.505 401.152, 167.763 406.675, 163.594 413 C 159.425 419.325, 156.018 423.825, 156.022 423 C 156.027 422.175, 157.596 416.100, 159.510 409.500 C 161.424 402.900, 162.992 397.010, 162.995 396.411 C 162.998 395.811, 161.956 394.845, 160.680 394.264 C 158.832 393.422, 158.131 393.542, 157.239 394.853 C 156.249 396.307, 156.111 396.242, 156.059 394.301 C 155.981 391.374, 150.135 387, 146.302 387 C 144.507 387, 142.242 387.973, 140.691 389.411 M 144.818 393.042 C 143.892 393.582, 141.008 397.506, 138.408 401.762 C 134.968 407.391, 133.655 410.590, 133.590 413.500 C 133.509 417.112, 133.757 417.530, 136.155 417.807 C 139.296 418.171, 141.862 415.172, 147.399 404.667 C 151.486 396.912, 151.829 394.514, 149.066 393.035 C 146.770 391.806, 146.937 391.806, 144.818 393.042 M 316.056 396.564 C 311.961 398.484, 308.492 400.175, 308.345 400.321 C 308.199 400.468, 308.348 401.616, 308.677 402.874 C 309.114 404.544, 309.778 405.005, 311.138 404.581 C 312.162 404.261, 313.807 403.747, 314.793 403.437 C 316.204 402.995, 317.093 404.010, 318.954 408.187 C 322.731 416.665, 329.169 430.470, 329.513 430.831 C 330.051 431.396, 334 428.978, 334 428.084 C 334 427.619, 331.300 421.543, 328 414.582 C 324.700 407.620, 322 401.482, 322 400.941 C 322 400.400, 323.125 399.445, 324.500 398.818 C 327.143 397.614, 327.366 397.116, 326.393 394.582 C 325.552 392.389, 324.542 392.583, 316.056 396.564 M 335.009 394.346 C 335.004 394.811, 335.661 396.386, 336.469 397.846 C 337.276 399.306, 338.603 402.188, 339.418 404.250 C 341.070 408.435, 341.969 408.808, 344.252 406.250 C 345.695 404.634, 345.402 404.080, 340.416 399 C 337.447 395.975, 335.014 393.881, 335.009 394.346 M 296 404.623 C 295.175 404.905, 292.874 405.821, 290.887 406.658 L 287.274 408.180 293.137 425.232 C 296.362 434.610, 299 442.402, 299 442.548 C 299 443.111, 303.056 441.718, 303.498 441.003 C 303.755 440.588, 302.826 436.989, 301.434 433.005 C 300.043 429.022, 299.135 425.531, 299.418 425.248 C 299.701 424.966, 301.598 424.681, 303.633 424.617 C 307.251 424.503, 307.388 424.634, 309.749 430.500 C 312.748 437.951, 313.086 438.298, 316.193 437.117 L 318.711 436.159 314.861 428.080 C 312.396 422.906, 310.431 420, 309.398 420 C 308.249 420, 307.997 419.497, 308.522 418.250 C 310.119 414.451, 309.951 412.339, 307.746 408.500 C 305.721 404.973, 304.979 404.477, 301.475 404.305 C 299.289 404.198, 296.825 404.341, 296 404.623 M 278.500 409.997 C 276.850 410.441, 273.767 411.102, 271.648 411.466 C 267.944 412.103, 267.812 412.261, 268.199 415.582 L 268.602 419.034 266.390 416.267 C 264.271 413.615, 263.872 413.517, 256.839 413.898 C 252.803 414.117, 248.037 414.342, 246.250 414.398 C 244.463 414.454, 242.982 414.950, 242.961 415.500 C 242.631 423.910, 241.713 438.572, 241.503 438.803 C 241.239 439.093, 239.030 432.078, 235.503 419.750 C 234.008 414.525, 233.605 414, 231.080 414 L 228.302 414 227.656 423.750 C 227.301 429.113, 227.008 437.438, 227.005 442.250 C 227 450.918, 227.023 451, 229.500 451 L 232 451 232.070 440.250 C 232.175 424.184, 233.027 423.828, 237.059 438.162 L 240.530 450.500 243.765 450.813 L 247 451.127 247 435.863 C 247 426.486, 247.357 420.966, 247.926 421.550 C 248.435 422.072, 249.584 427.900, 250.480 434.500 C 252.985 452.960, 252.152 451.336, 258.699 450.518 C 269.715 449.142, 271.603 446.588, 270.762 434.199 L 270.240 426.500 272.853 437.341 L 275.466 448.181 279.483 447.550 C 281.692 447.203, 285.188 446.470, 287.250 445.921 C 290.552 445.042, 291 444.556, 291 441.854 C 291 439.374, 290.673 438.911, 289.295 439.440 C 288.358 439.800, 285.724 440.350, 283.443 440.663 C 279.409 441.216, 279.279 441.143, 278.648 437.991 C 277.396 431.729, 277.692 431.106, 282.500 429.896 C 287.008 428.760, 287.757 427.745, 286.061 425.064 C 285.322 423.896, 284.296 423.824, 280.561 424.679 C 275.565 425.822, 275.400 425.663, 274.744 419.037 C 274.526 416.833, 275.005 416.479, 279.305 415.669 C 283.680 414.845, 284.083 414.535, 283.805 412.209 C 283.451 409.243, 282.608 408.892, 278.500 409.997 M 295.750 409.689 C 294.788 409.941, 294 410.773, 294 411.539 C 294 412.613, 296.327 418.569, 297.627 420.824 C 297.730 421.002, 299.206 420.428, 300.907 419.548 C 303.133 418.397, 304 417.236, 304 415.409 C 304 409.963, 301.455 408.199, 295.750 409.689 M 205.543 412.250 C 204.714 414.876, 201.986 436.692, 201.993 440.639 C 202.003 446.416, 204.418 449.067, 210.270 449.727 C 216.268 450.403, 219.571 448.387, 220.874 443.253 C 221.398 441.189, 222.596 433.936, 223.536 427.135 C 224.976 416.710, 225.029 414.633, 223.872 413.900 C 220.295 411.634, 219.480 414.004, 217.090 433.607 C 216.020 442.380, 214.721 445, 211.440 445 C 207.252 445, 206.833 441.721, 209.057 426.353 C 210.643 415.392, 210.786 412.482, 209.771 411.837 C 207.892 410.645, 205.991 410.830, 205.543 412.250 M 255.100 418.917 C 253.947 419.647, 253.898 420.831, 254.824 425.651 C 255.442 428.868, 256.246 434.538, 256.612 438.250 C 257.219 444.415, 257.474 445, 259.556 445 C 264.308 445, 265 444.114, 265 438.030 C 265 423.194, 260.887 415.253, 255.100 418.917 M 182.560 439.618 C 181.811 442.599, 181.773 442.528, 184.634 443.406 C 186.364 443.937, 186.895 443.553, 187.442 441.375 C 187.883 439.619, 187.663 438.403, 186.808 437.860 C 184.510 436.403, 183.234 436.931, 182.560 439.618" stroke="none" fill="#feffff" fill-rule="evenodd"/></svg>